<?xml version="1.0" standalone="no"?>
  <!DOCTYPE svg PUBLIC "-//W3C//DTD SVG 1.1//EN" "http://www.w3.org/Graphics/SVG/1.1/DTD/svg11.dtd" >
  <svg>
  <metadata>
  Created by font-carrier
  </metadata>
  <defs>
  <font id="MuseoSansCyrl-300" horiz-adv-x="1130" vert-adv-y="1130" >
    <font-face
      
      font-family="Museo Sans Cyrl 300"
      
      font-weight="400"
      
      font-stretch="normal"
      
      units-per-em="1000"
      
      ascent="940"
      
      descent="-260"
      
    />
      <missing-glyph />

      

      
      <glyph glyph-name="uni21" unicode="&#x21;" d="M98 184L95 703L165 703L162 184L98 184M92 0L92 79L170 79L170 0L92 0Z"  horiz-adv-x="262" vert-adv-y="1000"  />

      
      <glyph glyph-name="uni22" unicode="&#x22;" d="M200 545L200 713L259 713L259 545L200 545M79 545L79 713L138 713L138 545L79 545Z"  horiz-adv-x="338" vert-adv-y="1000"  />

      
      <glyph glyph-name="uni23" unicode="&#x23;" d="M155 0L189 195L47 195L57 251L199 251L234 447L92 447L102 503L243 503L278 703L339 703L304 503L477 503L512 703L573 703L538 503L678 503L669 447L529 447L494 251L634 251L624 195L484 195L450 0L389 0L423 195L250 195L216 0L155 0M260 251L433 251L468 447L294 447L260 251Z"  horiz-adv-x="726" vert-adv-y="1000"  />

      
      <glyph glyph-name="uni24" unicode="&#x24;" d="M66 78L107 131Q141 97 191 75.50Q241 54 291 54Q351 54 391 87.50Q431 121 431 176Q431 223 394.50 256.50Q358 290 306 312.50Q254 335 202 359Q150 383 113.50 425Q77 467 77 526Q77 596 128 649Q179 702 261 712L261 807L317 807L317 713Q417 708 484 647L450 589Q421 616 379 632.50Q337 649 296 649Q231 649 189.50 613Q148 577 148 528Q148 484 184.50 452.50Q221 421 273 399.50Q325 378 377 353.50Q429 329 465.50 285Q502 241 502 178Q502 103 452 50.50Q402-2 317-10L317-103L261-103L261-10Q141-1 66 78Z"  horiz-adv-x="568" vert-adv-y="1000"  />

      
      <glyph glyph-name="uni25" unicode="&#x25;" d="M294.50 477.50Q294.50 477.50 273.75 457.25Q253 437 195 437Q137 437 96 477.50Q55 518 55 576Q55 633 96 674Q137 715 195 715Q253 715 294.50 674Q336 633 336 576Q336 518 294.50 477.50M61 0L596 703L668 703L133 0L61 0M137.50 517Q137.50 517 149.25 505Q161 493 195 493Q229 493 252.50 517Q276 541 276 576Q276 610 252.50 634.50Q229 659 195 659Q161 659 137.50 634.50Q114 610 114 576Q114 541 137.50 517M393 126Q393 184 434 225Q475 266 533 266Q591 266 632.50 225Q674 184 674 126Q674 69 632.50 28.50Q591-12 533-12Q475-12 434 28.50Q393 69 393 126M452 127Q452 92 475.50 68Q499 44 533 44Q567 44 591 68Q615 92 615 127Q615 161 591 185.50Q567 210 533 210Q499 210 475.50 185.50Q452 161 452 127Z"  horiz-adv-x="728" vert-adv-y="1000"  />

      
      <glyph glyph-name="uni26" unicode="&#x26;" d="M60 194Q60 257 94 309Q128 361 188 379L188 381Q91 422 91 537Q91 618 148 666.50Q205 715 301 715Q340 715 381 704L362 647Q334 654 304 654Q242 654 202 621.50Q162 589 162 533Q162 512 167.50 493Q173 474 187.50 452.50Q202 431 234.50 418.50Q267 406 313 406L461 406L461 505L530 505L530 406L626 406L626 344L530 344L530 241Q530 117 468 52.50Q406-12 297-12Q193-12 126.50 46.50Q60 105 60 194M132 198Q132 136 177 94.50Q222 53 297 53Q461 53 461 243L461 344L313 344Q224 344 178 305Q132 266 132 198Z"  horiz-adv-x="665" vert-adv-y="1000"  />

      
      <glyph glyph-name="uni27" unicode="&#x27;" d="M79 545L79 713L138 713L138 545L79 545Z"  horiz-adv-x="217" vert-adv-y="1000"  />

      
      <glyph glyph-name="uni28" unicode="&#x28;" d="M170-95Q58 100 58 337Q58 545 170 730L234 730Q121 541 121 336Q121 106 234-95L170-95Z"  horiz-adv-x="278" vert-adv-y="1000"  />

      
      <glyph glyph-name="uni29" unicode="&#x29;" d="M44-95Q157 108 157 336Q157 539 44 730L107 730Q220 546 220 337Q220 99 107-95L44-95Z"  horiz-adv-x="278" vert-adv-y="1000"  />

      
      <glyph glyph-name="uni2a" unicode="&#x2a;" d="M161 337L108 375L203 495L203 497L56 539L75 602L220 549L214 703L281 703L275 549L420 601L441 540L293 497L293 495L387 375L334 336L249 463L247 463L161 337Z"  horiz-adv-x="496" vert-adv-y="1000"  />

      
      <glyph glyph-name="uni2b" unicode="&#x2b;" d="M23 255L23 313L254 313L254 568L315 568L315 313L545 313L545 255L315 255L315 0L254 0L254 255L23 255Z"  horiz-adv-x="568" vert-adv-y="1000"  />

      
      <glyph glyph-name="uni2c" unicode="&#x2c;" d="M44-97L101 82L179 82L103-97L44-97Z"  horiz-adv-x="262" vert-adv-y="1000"  />

      
      <glyph glyph-name="uni2d" unicode="&#x2d;" d="M74 253L74 315L358 315L358 253L74 253Z"  horiz-adv-x="432" vert-adv-y="1000"  />

      
      <glyph glyph-name="uni2e" unicode="&#x2e;" d="M74 0L74 83L156 83L156 0L74 0Z"  horiz-adv-x="230" vert-adv-y="1000"  />

      
      <glyph glyph-name="uni2f" unicode="&#x2f;" d="M42-42L296 742L360 742L106-42L42-42Z"  horiz-adv-x="402" vert-adv-y="1000"  />

      
      <glyph glyph-name="uni30" unicode="&#x30;" d="M308-12Q180-12 123 87Q66 186 66 352Q66 431 78.50 494.50Q91 558 118.50 609Q146 660 194 687.50Q242 715 308 715Q396 715 452 665Q508 615 529.50 537Q551 459 551 352Q551 272 538.50 208.50Q526 145 498.50 94.50Q471 44 423 16Q375-12 308-12M308 53Q372 53 411.50 94Q451 135 465 198Q479 261 479 352Q479 418 471 469.50Q463 521 444 562.50Q425 604 391 626.50Q357 649 308 649Q138 649 138 352Q138 212 176.50 132.50Q215 53 308 53Z"  horiz-adv-x="617" vert-adv-y="1000"  />

      
      <glyph glyph-name="uni31" unicode="&#x31;" d="M57 0L57 62L215 62L215 578L216 617L214 617Q207 603 179 575L104 501L60 545L219 703L283 703L283 62L438 62L438 0L57 0Z"  horiz-adv-x="472" vert-adv-y="1000"  />

      
      <glyph glyph-name="uni32" unicode="&#x32;" d="M62 0Q58 32 58 45Q58 95 78 138.50Q98 182 129.50 213.50Q161 245 200 273.50Q239 302 277.50 328Q316 354 347.50 380.50Q379 407 399 441.50Q419 476 419 514Q419 573 378.50 611Q338 649 273 649Q225 649 183.50 622.50Q142 596 115 553L64 588Q95 644 151.50 679.50Q208 715 277 715Q374 715 432.50 659Q491 603 491 518Q491 470 471.50 428.50Q452 387 420.50 356.50Q389 326 351 298.50Q313 271 275 245.50Q237 220 205.50 193.50Q174 167 154 133.50Q134 100 134 62L502 62L502 0L62 0Z"  horiz-adv-x="564" vert-adv-y="1000"  />

      
      <glyph glyph-name="uni33" unicode="&#x33;" d="M49 84L92 137Q124 102 172 78.50Q220 55 272 55Q337 55 384.50 97.50Q432 140 432 206Q432 277 380.50 316.50Q329 356 256 356L207 356L190 397L366 603L403 642L403 644Q383 641 346 641L82 641L82 703L493 703L493 657L284 415Q320 413 356 401.50Q392 390 426 367.50Q460 345 481.50 303.50Q503 262 503 208Q503 117 437 52.50Q371-12 272-12Q211-12 152 13.50Q93 39 49 84Z"  horiz-adv-x="562" vert-adv-y="1000"  />

      
      <glyph glyph-name="uni34" unicode="&#x34;" d="M38 195L38 240L383 703L458 703L458 255L558 255L558 195L458 195L458 0L389 0L389 195L38 195M121 255L389 255L389 550L393 617L391 617Q374 588 356 563L121 257L121 255Z"  horiz-adv-x="601" vert-adv-y="1000"  />

      
      <glyph glyph-name="uni35" unicode="&#x35;" d="M54 87L99 136Q155 55 257 55Q331 55 381.50 101.50Q432 148 432 219Q432 291 381 338Q330 385 254 385Q183 385 126 346L82 362L120 703L460 703L460 641L181 641L160 461L154 421L156 421Q199 448 262 448Q366 448 435 381.50Q504 315 504 219Q504 122 433.50 55Q363-12 260-12Q199-12 144 14Q89 40 54 87Z"  horiz-adv-x="555" vert-adv-y="1000"  />

      
      <glyph glyph-name="uni36" unicode="&#x36;" d="M62 317Q62 386 80 454Q98 522 134 581.50Q170 641 231 678Q292 715 370 715Q442 715 500 686L474 625Q432 649 370 649Q269 649 208.50 565.50Q148 482 138 368L140 368Q165 405 214 427.50Q263 450 318 450Q414 450 475 386Q536 322 536 220Q536 116 473 52Q410-12 316-12Q203-12 132.50 81Q62 174 62 317M320 53Q385 53 425.50 100.50Q466 148 466 222Q466 298 422.50 343Q379 388 307 388Q240 388 188.50 351.50Q137 315 137 260Q137 220 156.50 174Q176 128 220 90.50Q264 53 320 53Z"  horiz-adv-x="589" vert-adv-y="1000"  />

      
      <glyph glyph-name="uni37" unicode="&#x37;" d="M103 0L387 576L425 641L425 643Q408 641 373 641L44 641L44 703L501 703L501 655L175 0L103 0Z"  horiz-adv-x="527" vert-adv-y="1000"  />

      
      <glyph glyph-name="uni38" unicode="&#x38;" d="M59 198Q59 238 73 273.50Q87 309 109 334Q131 359 147 372Q163 385 178 395Q93 451 93 535Q93 610 149 662.50Q205 715 306 715Q403 715 462 664.50Q521 614 521 533Q521 490 501 445.50Q481 401 463.50 379Q446 357 430 341Q530 283 530 191Q530 107 464 47.50Q398-12 297-12Q199-12 129 46.50Q59 105 59 198M373 369Q451 447 451 528Q451 585 410.50 618Q370 651 305 651Q240 651 201.50 618Q163 585 163 536Q163 514 172.50 494.50Q182 475 195 462Q208 449 232.50 434.50Q257 420 274.50 412Q292 404 324.50 390.50Q357 377 373 369M131 203Q131 137 181 94.50Q231 52 296 52Q360 52 409.50 91.50Q459 131 459 190Q459 217 446.50 239Q434 261 407.50 279Q381 297 358.50 308Q336 319 295 336Q254 353 234 363Q131 299 131 203Z"  horiz-adv-x="595" vert-adv-y="1000"  />

      
      <glyph glyph-name="uni39" unicode="&#x39;" d="M89 17L116 78Q162 53 218 53Q288 53 340.50 96Q393 139 419 200.50Q445 262 452 335L450 335Q424 298 375 275.50Q326 253 272 253Q175 253 114 316.50Q53 380 53 481Q53 587 116 651Q179 715 274 715Q387 715 457 622Q527 529 527 385Q527 316 508.50 248.50Q490 181 454.50 121.50Q419 62 357.50 25Q296-12 218-12Q148-12 89 17M282 315Q351 315 402 353Q453 391 453 435Q453 511 401 580Q349 649 275 649Q204 649 163.50 602Q123 555 123 481Q123 406 166.50 360.50Q210 315 282 315Z"  horiz-adv-x="589" vert-adv-y="1000"  />

      
      <glyph glyph-name="uni3a" unicode="&#x3a;" d="M74 423L74 503L152 503L152 423L74 423M74 0L74 80L152 80L152 0L74 0Z"  horiz-adv-x="227" vert-adv-y="1000"  />

      
      <glyph glyph-name="uni3b" unicode="&#x3b;" d="M116 423L116 503L193 503L193 423L116 423M66-97L115 82L190 82L124-97L66-97Z"  horiz-adv-x="281" vert-adv-y="1000"  />

      
      <glyph glyph-name="uni3c" unicode="&#x3c;" d="M45 259L45 309L497 511L497 444L129 285L129 283L497 124L497 57L45 259Z"  horiz-adv-x="568" vert-adv-y="1000"  />

      
      <glyph glyph-name="uni3d" unicode="&#x3d;" d="M51 342L51 400L517 400L517 342L51 342M51 168L51 226L517 226L517 168L51 168Z"  horiz-adv-x="568" vert-adv-y="1000"  />

      
      <glyph glyph-name="uni3e" unicode="&#x3e;" d="M71 57L71 124L438 283L438 285L71 444L71 511L522 309L522 259L71 57Z"  horiz-adv-x="568" vert-adv-y="1000"  />

      
      <glyph glyph-name="uni3f" unicode="&#x3f;" d="M157 184L157 229Q157 273 175 308.50Q193 344 218.50 368Q244 392 269.50 415.50Q295 439 313 469.50Q331 500 331 536Q331 585 294 618Q257 651 200 651Q135 651 80 609L42 659Q70 684 114 700Q158 716 203 716Q289 716 346 666Q403 616 403 539Q403 493 384.50 456Q366 419 340 394.50Q314 370 287.50 347Q261 324 242.50 293.50Q224 263 224 227L224 184L157 184M151 0L151 79L230 79L230 0L151 0Z"  horiz-adv-x="450" vert-adv-y="1000"  />

      
      <glyph glyph-name="uni40" unicode="&#x40;" d="M60 242Q60 395 164 502.50Q268 610 415 610Q542 610 601 556Q660 502 660 420L660 105L731 105L731 49L462 49Q377 49 320 105.50Q263 162 263 241Q263 320 320 376.50Q377 433 462 433L592 433Q590 484 546.50 517.50Q503 551 420 551Q298 551 213.50 460Q129 369 129 242Q129 113 213.50 24.50Q298-64 425-64L425-124Q270-124 165-18Q60 88 60 242M372.50 339.50Q372.50 339.50 352.75 319.25Q333 299 333 242Q333 185 372 145Q411 105 468 105L592 105L592 380L470 380Q412 380 372.50 339.50Z"  horiz-adv-x="778" vert-adv-y="1000"  />

      
      <glyph glyph-name="uni41" unicode="&#x41;" d="M21 0L279 703L353 703L611 0L538 0L457 224L174 224L94 0L21 0M195 284L436 284L344 539L317 631L315 631Q300 572 288 539L195 284Z"  horiz-adv-x="632" vert-adv-y="1000"  />

      
      <glyph glyph-name="uni42" unicode="&#x42;" d="M101 0L101 703L341 703Q425 703 478 655Q531 607 531 526Q531 418 442 373L442 371Q496 356 528 308Q560 260 560 197Q560 106 500 53Q440 0 349 0L101 0M170 398L341 398Q394 398 427 432Q460 466 460 521Q460 575 427.50 608Q395 641 339 641L170 641L170 398M170 62L350 62Q414 62 451 99Q488 136 488 199Q488 262 449.50 300Q411 338 349 338L170 338L170 62Z"  horiz-adv-x="616" vert-adv-y="1000"  />

      
      <glyph glyph-name="uni43" unicode="&#x43;" d="M55 356Q55 510 154.50 612.50Q254 715 408 715Q567 715 662 624L625 573Q584 609 526 629.50Q468 650 410 650Q284 650 205.50 566.50Q127 483 127 357Q127 229 206 141Q285 53 413 53Q545 53 640 146L680 97Q569-12 411-12Q253-12 154 93.50Q55 199 55 356Z"  horiz-adv-x="718" vert-adv-y="1000"  />

      
      <glyph glyph-name="uni44" unicode="&#x44;" d="M101 0L101 703L327 703Q488 703 584 609.50Q680 516 680 352Q680 187 584 93.50Q488 0 327 0L101 0M170 62L320 62Q452 62 530 137.50Q608 213 608 352Q608 490 530 565.50Q452 641 320 641L170 641L170 62Z"  horiz-adv-x="738" vert-adv-y="1000"  />

      
      <glyph glyph-name="uni45" unicode="&#x45;" d="M101 0L101 703L496 703L496 641L170 641L170 385L437 385L437 323L170 323L170 62L515 62L515 0L101 0Z"  horiz-adv-x="560" vert-adv-y="1000"  />

      
      <glyph glyph-name="uni46" unicode="&#x46;" d="M101 0L101 703L470 703L470 641L170 641L170 377L428 377L428 315L170 315L170 0L101 0Z"  horiz-adv-x="506" vert-adv-y="1000"  />

      
      <glyph glyph-name="uni47" unicode="&#x47;" d="M55 352Q55 505 157 610Q259 715 410 715Q559 715 660 633L622 580Q585 611 527 630.50Q469 650 413 650Q287 650 207 565Q127 480 127 353Q127 223 206.50 138Q286 53 407 53Q469 53 527.50 80.50Q586 108 628 155L628 274L508 274L508 336L693 336L693 0L630 0L630 53L631 83L629 83Q590 40 529 14Q468-12 400-12Q254-12 154.50 92Q55 196 55 352Z"  horiz-adv-x="758" vert-adv-y="1000"  />

      
      <glyph glyph-name="uni48" unicode="&#x48;" d="M101 0L101 703L170 703L170 383L577 383L577 703L647 703L647 0L577 0L577 321L170 321L170 0L101 0Z"  horiz-adv-x="747" vert-adv-y="1000"  />

      
      <glyph glyph-name="uni49" unicode="&#x49;" d="M101 0L101 703L170 703L170 0L101 0Z"  horiz-adv-x="271" vert-adv-y="1000"  />

      
      <glyph glyph-name="uni4a" unicode="&#x4a;" d="M32 197L32 225L101 225L101 199Q101 136 133 94.50Q165 53 228 53Q283 53 320 88Q357 123 357 197L357 641L185 641L185 703L426 703L426 197Q426 91 368.50 39.50Q311-12 229-12Q147-12 89.50 40Q32 92 32 197Z"  horiz-adv-x="520" vert-adv-y="1000"  />

      
      <glyph glyph-name="uni4b" unicode="&#x4b;" d="M101 0L101 703L170 703L170 398L288 398L478 703L557 703L346 371L346 369L571 0L490 0L288 336L170 336L170 0L101 0Z"  horiz-adv-x="591" vert-adv-y="1000"  />

      
      <glyph glyph-name="uni4c" unicode="&#x4c;" d="M101 0L101 703L170 703L170 62L496 62L496 0L101 0Z"  horiz-adv-x="517" vert-adv-y="1000"  />

      
      <glyph glyph-name="uni4d" unicode="&#x4d;" d="M74 0L130 703L201 703L386 290L420 204L422 204Q440 254 456 290L641 703L712 703L768 0L699 0L660 492L658 590L656 590Q635 528 619 492L453 131L389 131L224 492L186 592L184 592Q185 530 182 492L143 0L74 0Z"  horiz-adv-x="842" vert-adv-y="1000"  />

      
      <glyph glyph-name="uni4e" unicode="&#x4e;" d="M101 0L101 703L168 703L527 197L585 102L587 102Q581 160 581 197L581 703L650 703L650 0L583 0L224 506L166 601L164 601Q170 543 170 506L170 0L101 0Z"  horiz-adv-x="751" vert-adv-y="1000"  />

      
      <glyph glyph-name="uni4f" unicode="&#x4f;" d="M54 357Q54 508 156.50 611.50Q259 715 412 715Q566 715 668 612Q770 509 770 357Q770 201 668 94.50Q566-12 412-12Q259-12 156.50 94.50Q54 201 54 357M126 357Q126 228 207.50 140.50Q289 53 412 53Q535 53 616.50 140Q698 227 698 357Q698 482 616.50 566Q535 650 412 650Q289 650 207.50 566Q126 482 126 357Z"  horiz-adv-x="825" vert-adv-y="1000"  />

      
      <glyph glyph-name="uni50" unicode="&#x50;" d="M101 0L101 703L344 703Q439 703 500 645Q561 587 561 491Q561 394 500 335Q439 276 344 276L170 276L170 0L101 0M170 338L335 338Q406 338 448 379Q490 420 490 491Q490 561 448.50 601Q407 641 336 641L170 641L170 338Z"  horiz-adv-x="597" vert-adv-y="1000"  />

      
      <glyph glyph-name="uni51" unicode="&#x51;" d="M55 356Q55 508 157.50 611.50Q260 715 412 715Q567 715 669 612Q771 509 771 356Q771 213 683 114L770 27L728-17L643 71Q544-12 412-12Q259-12 157 94.50Q55 201 55 356M127 356Q127 228 209 140.50Q291 53 412 53Q518 53 594 118L507 206L549 249L634 162Q699 243 699 356Q699 482 616.50 566Q534 650 412 650Q291 650 209 566Q127 482 127 356Z"  horiz-adv-x="825" vert-adv-y="1000"  />

      
      <glyph glyph-name="uni52" unicode="&#x52;" d="M101 0L101 703L314 703Q398 703 443 683Q547 633 547 507Q547 436 510 383Q473 330 413 313L413 311Q421 302 432 283L585 0L505 0L347 296L170 296L170 0L101 0M170 358L337 358Q400 358 438 398.50Q476 439 476 505Q476 547 456.50 579.50Q437 612 402 628Q373 641 310 641L170 641L170 358Z"  horiz-adv-x="617" vert-adv-y="1000"  />

      
      <glyph glyph-name="uni53" unicode="&#x53;" d="M47 78L88 131Q123 97 171.50 75.50Q220 54 270 54Q333 54 372.50 87Q412 120 412 174Q412 210 392.50 237.50Q373 265 342.50 283.50Q312 302 274.50 318.50Q237 335 199.50 353Q162 371 131.50 392.50Q101 414 81.50 448.50Q62 483 62 527Q62 612 125 663.50Q188 715 283 715Q396 715 469 647L435 589Q406 616 364 632.50Q322 649 280 649Q218 649 175.50 617Q133 585 133 531Q133 497 152.50 470.50Q172 444 202.50 427Q233 410 270.50 394Q308 378 345.50 360Q383 342 413.50 320Q444 298 463.50 262.50Q483 227 483 181Q483 97 425 42.50Q367-12 268-12Q137-12 47 78Z"  horiz-adv-x="534" vert-adv-y="1000"  />

      
      <glyph glyph-name="uni54" unicode="&#x54;" d="M269 0L269 641L17 641L17 703L591 703L591 641L338 641L338 0L269 0Z"  horiz-adv-x="607" vert-adv-y="1000"  />

      
      <glyph glyph-name="uni55" unicode="&#x55;" d="M93 245L93 703L162 703L162 246Q162 156 216 104.50Q270 53 361 53Q453 53 507 105Q561 157 561 248L561 703L631 703L631 245Q631 129 556.50 58.50Q482-12 362-12Q242-12 167.50 58.50Q93 129 93 245Z"  horiz-adv-x="723" vert-adv-y="1000"  />

      
      <glyph glyph-name="uni56" unicode="&#x56;" d="M279 0L19 703L93 703L288 169L315 79L317 79Q331 133 344 169L539 703L613 703L353 0L279 0Z"  horiz-adv-x="632" vert-adv-y="1000"  />

      
      <glyph glyph-name="uni57" unicode="&#x57;" d="M217 0L35 703L108 703L244 157L260 82L262 82Q269 120 280 157L430 703L496 703L646 157L663 82L665 82Q671 121 680 157L823 703L895 703L707 0L625 0L489 495L464 600L461 600Q449 540 436 495L300 0L217 0Z"  horiz-adv-x="927" vert-adv-y="1000"  />

      
      <glyph glyph-name="uni58" unicode="&#x58;" d="M19 0L243 367L38 703L119 703L242 495L288 414L290 414Q311 459 333 495L457 703L538 703L332 367L557 0L478 0L331 243L287 321L285 321Q264 279 242 242L98 0L19 0Z"  horiz-adv-x="576" vert-adv-y="1000"  />

      
      <glyph glyph-name="uni59" unicode="&#x59;" d="M255 0L255 302L17 703L96 703L245 448L288 364L290 364Q312 411 333 448L482 703L561 703L324 302L324 0L255 0Z"  horiz-adv-x="579" vert-adv-y="1000"  />

      
      <glyph glyph-name="uni5a" unicode="&#x5a;" d="M35 0L35 49L399 577Q410 594 422.50 610Q435 626 442 634L448 641L448 643Q431 641 396 641L55 641L55 703L534 703L534 654L170 126Q159 109 146.50 93Q134 77 128 70L121 62L121 60Q138 62 173 62L537 62L537 0L35 0Z"  horiz-adv-x="579" vert-adv-y="1000"  />

      
      <glyph glyph-name="uni5b" unicode="&#x5b;" d="M92-95L92 730L228 730L228 674L155 674L155-39L228-39L228-95L92-95Z"  horiz-adv-x="282" vert-adv-y="1000"  />

      
      <glyph glyph-name="uni5c" unicode="&#x5c;" d="M296-42L42 742L106 742L360-42L296-42Z"  horiz-adv-x="402" vert-adv-y="1000"  />

      
      <glyph glyph-name="uni5d" unicode="&#x5d;" d="M54-39L127-39L127 674L54 674L54 730L190 730L190-95L54-95L54-39Z"  horiz-adv-x="282" vert-adv-y="1000"  />

      
      <glyph glyph-name="uni5e" unicode="&#x5e;" d="M73 250L272 703L318 703L517 250L451 250L295 620L139 250L73 250Z"  horiz-adv-x="606" vert-adv-y="1000"  />

      
      <glyph glyph-name="uni5f" unicode="&#x5f;" d="M37 0L553 0L553-58L37-58L37 0Z"  horiz-adv-x="589" vert-adv-y="1000"  />

      
      <glyph glyph-name="uni60" unicode="&#x60;" d="M264 752L178 871L257 871L326 752L264 752Z"  horiz-adv-x="504" vert-adv-y="1000"  />

      
      <glyph glyph-name="uni61" unicode="&#x61;" d="M37 135Q37 310 343 310L373 310L373 324Q373 454 249 454Q172 454 106 406L75 458Q105 484 154 499.50Q203 515 253 515Q344 515 392.50 465.50Q441 416 441 322L441 0L376 0L376 59L379 101L377 101Q356 53 310.50 20.50Q265-12 207-12Q138-12 87.50 27Q37 66 37 135M106 141Q106 103 136 74Q166 45 219 45Q288 45 330.50 103Q373 161 373 233L373 256L344 256Q312 256 288.50 255Q265 254 227.50 247.50Q190 241 166 230Q142 219 124 196Q106 173 106 141Z"  horiz-adv-x="517" vert-adv-y="1000"  />

      
      <glyph glyph-name="uni62" unicode="&#x62;" d="M81 0L81 703L149 703L149 455L146 413L148 413Q171 460 217 487.50Q263 515 320 515Q421 515 480 442.50Q539 370 539 252Q539 133 476 60.50Q413-12 312-12Q259-12 214 16Q169 44 145 91L143 91Q146 74 146 50L146 0L81 0M147 250Q147 168 189 108.50Q231 49 307 49Q376 49 423 103.50Q470 158 470 251Q470 342 425.50 397.50Q381 453 310 453Q241 453 194 402Q147 351 147 250Z"  horiz-adv-x="589" vert-adv-y="1000"  />

      
      <glyph glyph-name="uni63" unicode="&#x63;" d="M47 251Q47 366 123 440.50Q199 515 311 515Q363 515 413 496.50Q463 478 495 443L460 392Q433 420 393.50 437Q354 454 313 454Q229 454 173 397Q117 340 117 251Q117 163 173.50 106.50Q230 50 315 50Q359 50 403 68.50Q447 87 476 119L507 68Q474 31 421.50 9.50Q369-12 311-12Q198-12 122.50 61.50Q47 135 47 251Z"  horiz-adv-x="542" vert-adv-y="1000"  />

      
      <glyph glyph-name="uni64" unicode="&#x64;" d="M108.50 61Q108.50 61 78.75 97.50Q49 134 49 252Q49 370 112 442.50Q175 515 276 515Q329 515 373.50 488.50Q418 462 441 416L443 416Q440 433 440 454L440 703L508 703L508 0L442 0L442 57L445 93L443 93Q420 47 375 17.50Q330-12 268-12Q168-12 108.50 61M119 252Q119 160 163.50 104.50Q208 49 279 49Q348 49 394.50 100Q441 151 441 253Q441 335 399.50 394Q358 453 282 453Q213 453 166 399Q119 345 119 252Z"  horiz-adv-x="589" vert-adv-y="1000"  />

      
      <glyph glyph-name="uni65" unicode="&#x65;" d="M47 251Q47 371 118.50 443Q190 515 296 515Q396 515 451 448.50Q506 382 506 283Q506 271 504 249L118 249Q120 156 176 103Q232 50 313 50Q400 50 466 110L497 58Q462 26 411.50 7Q361-12 311-12Q198-12 122.50 62Q47 136 47 251M121 303L437 303Q434 378 394 418.50Q354 459 294 459Q229 459 181 418Q133 377 121 303Z"  horiz-adv-x="553" vert-adv-y="1000"  />

      
      <glyph glyph-name="uni66" unicode="&#x66;" d="M100 0L100 442L37 442L37 499L100 499L100 522Q100 580 118.50 620Q137 660 167 677.50Q197 695 222.50 701.50Q248 708 274 708Q290 708 305 705L305 645Q297 647 281 647Q263 647 246.50 642.50Q230 638 211 626.50Q192 615 180.50 587.50Q169 560 169 521L169 499L297 499L297 442L169 442L169 0L100 0Z"  horiz-adv-x="322" vert-adv-y="1000"  />

      
      <glyph glyph-name="uni67" unicode="&#x67;" d="M120-114Q186-148 257-148Q336-148 384-109.50Q432-71 432 9L432 59L436 96L434 96Q385 3 274 3Q173 3 111.50 75Q50 147 50 261Q50 375 109 445Q168 515 268 515Q322 515 367.50 493Q413 471 435 427L437 427Q435 433 435 444L435 503L501 503L501 12Q501-100 431.50-155Q362-210 259-210Q172-210 95-169L120-114M160.50 403Q160.50 403 139.75 377.50Q119 352 119 262Q119 172 164 118Q209 64 284 64Q351 64 392.50 110.50Q434 157 434 261Q434 454 275 454Q202 454 160.50 403Z"  horiz-adv-x="582" vert-adv-y="1000"  />

      
      <glyph glyph-name="uni68" unicode="&#x68;" d="M81 0L81 703L149 703L149 427L146 386L148 386Q166 432 219.50 473.50Q273 515 349 515Q440 515 479 466Q518 417 518 320L518 0L450 0L450 302Q450 373 428 412Q406 451 340 451Q260 451 204.50 392Q149 333 149 243L149 0L81 0Z"  horiz-adv-x="594" vert-adv-y="1000"  />

      
      <glyph glyph-name="uni69" unicode="&#x69;" d="M78 618L78 703L152 703L152 618L78 618M81 0L81 503L149 503L149 0L81 0Z"  horiz-adv-x="230" vert-adv-y="1000"  />

      
      <glyph glyph-name="uni6a" unicode="&#x6a;" d="M78 618L78 703L152 703L152 618L78 618M81-16L81 503L149 503L149-18Q149-77 130.50-117.50Q112-158 82-175.50Q52-193 26.50-199.50Q1-206-26-206Q-40-206-55-203L-55-143Q-47-145-33-145Q-15-145 1.50-140.50Q18-136 37.50-124Q57-112 69-84Q81-56 81-16Z"  horiz-adv-x="230" vert-adv-y="1000"  />

      
      <glyph glyph-name="uni6b" unicode="&#x6b;" d="M81 0L81 703L149 703L149 311L230 311L380 503L462 503L287 284L287 282L480 0L398 0L231 251L149 251L149 0L81 0Z"  horiz-adv-x="496" vert-adv-y="1000"  />

      
      <glyph glyph-name="uni6c" unicode="&#x6c;" d="M81 119L81 703L149 703L149 134Q149 58 206 58Q216 58 222 59L222-2Q210-4 197-4Q182-4 169-2Q156 0 139 7.50Q122 15 110 28Q98 41 89.50 64.50Q81 88 81 119Z"  horiz-adv-x="246" vert-adv-y="1000"  />

      
      <glyph glyph-name="uni6d" unicode="&#x6d;" d="M81 0L81 503L148 503L148 424L144 384L146 384Q165 436 219 475.50Q273 515 331 515Q464 515 486 389L488 389Q510 440 561.50 477.50Q613 515 673 515Q762 515 801 466Q840 417 840 320L840 0L772 0L772 303Q772 374 749.50 413Q727 452 664 452Q591 452 543 388.50Q495 325 495 243L495 0L427 0L427 303Q427 373 406 412.50Q385 452 321 452Q247 452 198 387.50Q149 323 149 243L149 0L81 0Z"  horiz-adv-x="916" vert-adv-y="1000"  />

      
      <glyph glyph-name="uni6e" unicode="&#x6e;" d="M81 0L81 503L148 503L148 424L144 384L146 384Q165 430 217.50 472.50Q270 515 349 515Q440 515 479 466Q518 417 518 320L518 0L450 0L450 302Q450 373 428 412Q406 451 340 451Q259 451 204 392Q149 333 149 246L149 0L81 0Z"  horiz-adv-x="594" vert-adv-y="1000"  />

      
      <glyph glyph-name="uni6f" unicode="&#x6f;" d="M47 254Q47 365 124 440Q201 515 312 515Q423 515 500.50 440Q578 365 578 254Q578 141 500.50 64.50Q423-12 312-12Q201-12 124 64.50Q47 141 47 254M117 254Q117 166 173.50 108Q230 50 312 50Q394 50 451 108Q508 166 508 254Q508 339 451 396.50Q394 454 312 454Q230 454 173.50 396.50Q117 339 117 254Z"  horiz-adv-x="624" vert-adv-y="1000"  />

      
      <glyph glyph-name="uni70" unicode="&#x70;" d="M81-200L81 503L146 503L146 450L143 411L145 411Q168 460 214.50 487.50Q261 515 320 515Q421 515 480 442.50Q539 370 539 252Q539 133 476 60.50Q413-12 314-12Q261-12 217 14.50Q173 41 148 88L146 88Q149 70 149 44L149-200L81-200M147 250Q147 169 190.50 109Q234 49 307 49Q376 49 423 103.50Q470 158 470 251Q470 342 425.50 397.50Q381 453 310 453Q241 453 194 402Q147 351 147 250Z"  horiz-adv-x="589" vert-adv-y="1000"  />

      
      <glyph glyph-name="uni71" unicode="&#x71;" d="M108.50 61Q108.50 61 78.75 97.50Q49 134 49 252Q49 370 112 442.50Q175 515 276 515Q329 515 374 488Q419 461 443 414L445 414Q442 430 442 452L442 503L508 503L508-200L440-200L440 46L443 90L441 90Q419 47 375.50 17.50Q332-12 268-12Q168-12 108.50 61M119 252Q119 160 163.50 104.50Q208 49 279 49Q348 49 394.50 100Q441 151 441 253Q441 335 399.50 394Q358 453 282 453Q213 453 166 399Q119 345 119 252Z"  horiz-adv-x="589" vert-adv-y="1000"  />

      
      <glyph glyph-name="uni72" unicode="&#x72;" d="M81 0L81 503L148 503L148 410L144 370L146 370Q166 430 208.50 469Q251 508 307 508Q322 508 334 505L334 438Q328 440 309 440Q256 440 218 403Q180 366 164.50 316.50Q149 267 149 213L149 0L81 0Z"  horiz-adv-x="357" vert-adv-y="1000"  />

      
      <glyph glyph-name="uni73" unicode="&#x73;" d="M37 61L73 109Q132 48 225 48Q269 48 297.50 69.50Q326 91 326 129Q326 160 298.50 181.50Q271 203 231.50 217.50Q192 232 152.50 249Q113 266 85.50 297.50Q58 329 58 375Q58 441 107 478Q156 515 229 515Q326 515 384 460L352 409Q331 430 296 442.50Q261 455 226 455Q183 455 154 435.50Q125 416 125 377Q125 346 152.50 324Q180 302 220 287.50Q260 273 299.50 256Q339 239 366.50 207.50Q394 176 394 130Q394 68 346 28Q298-12 224-12Q107-12 37 61Z"  horiz-adv-x="438" vert-adv-y="1000"  />

      
      <glyph glyph-name="uni74" unicode="&#x74;" d="M99 183L99 442L33 442L33 499L100 499L100 642L167 642L167 499L294 499L294 442L167 442L167 190Q167 149 179 120.50Q191 92 210 79.50Q229 67 246 62Q263 57 281 57Q295 57 304 59L304-2Q292-4 275-4Q254-4 234-1Q214 2 188.50 13.50Q163 25 144 44Q125 63 112 99Q99 135 99 183Z"  horiz-adv-x="325" vert-adv-y="1000"  />

      
      <glyph glyph-name="uni75" unicode="&#x75;" d="M75 183L75 503L144 503L144 201Q144 130 165.50 91Q187 52 253 52Q336 52 387.50 114Q439 176 439 262L439 503L507 503L507 0L440 0L440 79L444 119L442 119Q424 72 371.50 30Q319-12 244-12Q156-12 115.50 36Q75 84 75 183Z"  horiz-adv-x="588" vert-adv-y="1000"  />

      
      <glyph glyph-name="uni76" unicode="&#x76;" d="M219 0L25 503L98 503L237 134L254 73L256 73Q265 109 274 134L413 503L485 503L293 0L219 0Z"  horiz-adv-x="511" vert-adv-y="1000"  />

      
      <glyph glyph-name="uni77" unicode="&#x77;" d="M199 0L29 503L102 503L223 129L238 75L240 75Q248 104 256 129L379 501L447 501L570 129L586 75L588 75Q594 103 603 129L724 503L796 503L627 0L552 0L429 358L414 413L412 413Q404 383 396 358L274 0L199 0Z"  horiz-adv-x="825" vert-adv-y="1000"  />

      
      <glyph glyph-name="uni78" unicode="&#x78;" d="M20 0L196 262L34 503L114 503L222 334L239 305L241 305Q250 321 258 334L366 503L445 503L283 262L460 0L380 0L258 189L241 217L239 217Q231 203 222 189L99 0L20 0Z"  horiz-adv-x="479" vert-adv-y="1000"  />

      
      <glyph glyph-name="uni79" unicode="&#x79;" d="M45-126Q73-149 105-149Q165-149 201-67L231 5L22 503L97 503L244 136L263 83L265 83Q272 111 282 136L427 503L500 503L252-105Q232-154 194.50-182Q157-210 108-210Q85-210 62.50-202.50Q40-195 30-188L19-180L45-126Z"  horiz-adv-x="526" vert-adv-y="1000"  />

      
      <glyph glyph-name="uni7a" unicode="&#x7a;" d="M37 0L37 44L318 397L358 443L358 445Q341 443 308 443L49 443L49 503L450 503L450 458L169 106L128 60L128 58Q145 60 178 60L460 60L460 0L37 0Z"  horiz-adv-x="498" vert-adv-y="1000"  />

      
      <glyph glyph-name="uni7b" unicode="&#x7b;" d="M129 83L129 178Q129 223 107.50 253.50Q86 284 44 292L44 354Q84 362 106.50 392Q129 422 129 469L129 551Q129 598 141 633Q153 668 169.50 686Q186 704 208.50 714.50Q231 725 246.50 727.50Q262 730 278 730L293 730L293 674L284 674Q271 674 258.50 670.50Q246 667 229 655.50Q212 644 202 617Q192 590 192 549L192 451Q192 408 171 374Q150 340 112 324L112 322Q192 291 192 195L192 85Q192 44 202 17Q212-10 229-21.50Q246-33 258.50-36.50Q271-40 284-40L293-40L293-96Q287-97 278-97Q262-97 246.50-94.50Q231-92 208.50-81Q186-70 169.50-52Q153-34 141 1Q129 36 129 83Z"  horiz-adv-x="340" vert-adv-y="1000"  />

      
      <glyph glyph-name="uni7c" unicode="&#x7c;" d="M90-157L90 788L153 788L153-157L90-157Z"  horiz-adv-x="244" vert-adv-y="1000"  />

      
      <glyph glyph-name="uni7d" unicode="&#x7d;" d="M47-40L56-40Q69-40 81.50-36.50Q94-33 110.50-21.50Q127-10 137.50 17Q148 44 148 85L148 195Q148 241 169 274.50Q190 308 228 322L228 324Q193 337 170.50 371.50Q148 406 148 451L148 549Q148 590 137.50 617Q127 644 110.50 655.50Q94 667 81.50 670.50Q69 674 56 674L47 674L47 730L62 730Q78 730 93.50 727.50Q109 725 131.50 714.50Q154 704 170.50 686Q187 668 199 633Q211 598 211 551L211 469Q211 424 233 392.50Q255 361 296 354L296 292Q255 285 233 253.50Q211 222 211 178L211 83Q211 36 199 1Q187-34 170.50-52Q154-70 131.50-81Q109-92 93.50-94.50Q78-97 62-97L47-96L47-40Z"  horiz-adv-x="340" vert-adv-y="1000"  />

      
      <glyph glyph-name="uni7e" unicode="&#x7e;" d="M74 209Q74 288 107.50 326Q141 364 200 364Q237 364 265.50 348Q294 332 309.50 312Q325 292 348.50 276Q372 260 400 260Q440 260 455.50 291Q471 322 471 360L529 360Q529 281 495.50 243Q462 205 403 205Q366 205 337.50 221.50Q309 238 294 257Q279 276 255 292.50Q231 309 203 309Q164 309 148.50 278Q133 247 133 209L74 209Z"  horiz-adv-x="602" vert-adv-y="1000"  />

      
      <glyph glyph-name="unia1" unicode="&#xa1;" d="M151 318L154-201L84-201L87 318L151 318M157 502L157 423L79 423L79 502L157 502Z"  horiz-adv-x="240" vert-adv-y="1000"  />

      
      <glyph glyph-name="unia2" unicode="&#xa2;" d="M267-13L267 72Q167 83 112 160.50Q57 238 57 352Q57 465 112 542.50Q167 620 267 631L267 715L323 715L323 631Q450 616 509 483L446 459Q397 566 297 566Q214 566 170.50 506.50Q127 447 127 352Q127 256 170 196.50Q213 137 297 137Q397 137 446 244L509 220Q447 83 323 72L323-13L267-13Z"  horiz-adv-x="568" vert-adv-y="1000"  />

      
      <glyph glyph-name="unia3" unicode="&#xa3;" d="M49 0L49 62L112 62L112 326L68 326L68 381L112 381L112 530Q112 609 170.50 662Q229 715 318 715Q407 715 475 658L432 608Q383 650 319 650Q255 650 218.50 614.50Q182 579 182 526L182 381L373 381L373 326L182 326L182 62L521 62L521 0L49 0Z"  horiz-adv-x="568" vert-adv-y="1000"  />

      
      <glyph glyph-name="unia4" unicode="&#xa4;" d="M129 0L129 180L57 180L57 235L129 235L129 310L57 310L57 369L129 369L129 703L343 703Q441 703 500 649.50Q559 596 559 505Q559 415 498 362.50Q437 310 341 310L198 310L198 235L451 235L451 180L198 180L198 0L129 0M198 369L334 369Q405 369 446 406.50Q487 444 487 508Q487 572 446 608Q405 644 334 644L198 644L198 369Z"  horiz-adv-x="597" vert-adv-y="1000"  />

      
      <glyph glyph-name="unia5" unicode="&#xa5;" d="M86 211L86 262L249 262L249 302L221 350L86 350L86 401L193 401L17 703L96 703L240 453L283 364L285 364Q306 413 328 453L472 703L551 703L375 401L480 401L480 350L347 350L319 302L319 262L480 262L480 211L319 211L319 0L249 0L249 211L86 211Z"  horiz-adv-x="568" vert-adv-y="1000"  />

      
      <glyph glyph-name="unia7" unicode="&#xa7;" d="M142 85L73 519Q70 537 70 554Q70 624 117.50 669.50Q165 715 242 715Q310 715 358 673L323 626Q285 655 242 655Q195 655 163.50 626.50Q132 598 132 548Q132 531 136 518L202 85L142 85M57-20L92 28Q128-2 174-2Q221-2 252 27.50Q283 57 283 107Q283 124 279 139L214 568L274 568L342 134Q345 115 345 99Q345 29 297.50-16.50Q250-62 173-62Q107-62 57-20Z"  horiz-adv-x="415" vert-adv-y="1000"  />

      
      <glyph glyph-name="unia8" unicode="&#xa8;" d="M297 785L297 871L359 871L359 785L297 785M146 785L146 871L207 871L207 785L146 785Z"  horiz-adv-x="504" vert-adv-y="1000"  />

      
      <glyph glyph-name="unia9" unicode="&#xa9;" d="M60 352Q60 503 163.50 609Q267 715 413 715Q562 715 666 609.50Q770 504 770 352Q770 200 666 94Q562-12 413-12Q266-12 163 94Q60 200 60 352M118 352Q118 221 203 131.50Q288 42 413 42Q540 42 626 131.50Q712 221 712 352Q712 482 625.50 571.50Q539 661 413 661Q289 661 203.50 571.50Q118 482 118 352M272.50 206Q272.50 206 244.75 236Q217 266 217 350Q217 434 272.50 495Q328 556 423 556Q473 556 516.50 530.50Q560 505 586 463L540 432Q522 461 490.50 481Q459 501 425 501Q356 501 316 457Q276 413 276 351Q276 289 315.50 245Q355 201 425 201Q459 201 490 220Q521 239 540 270L586 239Q562 200 517.50 173Q473 146 423 146Q328 146 272.50 206Z"  horiz-adv-x="829" vert-adv-y="1000"  />

      
      <glyph glyph-name="uniaa" unicode="&#xaa;" d="M190 382Q146 382 113 407Q80 432 80 477Q80 588 272 588L284 588L284 592Q284 666 214 666Q171 666 129 638L104 676Q150 713 219 713Q278 713 308.50 681.50Q339 650 339 590L339 388L286 388L286 437L284 437Q272 414 246.50 398Q221 382 190 382M198 429Q236 429 260 462Q284 495 284 535L284 544L271 544Q137 544 137 481Q137 459 153 444Q169 429 198 429M79 264L79 310L342 310L342 264L79 264Z"  horiz-adv-x="425" vert-adv-y="1000"  />

      
      <glyph glyph-name="uniab" unicode="&#xab;" d="M230 282L394 488L468 488L304 282L468 77L394 77L230 282M214 77L50 282L214 488L288 488L124 282L288 77L214 77Z"  horiz-adv-x="526" vert-adv-y="1000"  />

      
      <glyph glyph-name="uniac" unicode="&#xac;" d="M81 342L81 400L548 400L548 158L487 158L487 342L81 342Z"  horiz-adv-x="627" vert-adv-y="1000"  />

      
      <glyph glyph-name="uniad" unicode="&#xad;" d="M74 253L74 315L358 315L358 253L74 253Z"  horiz-adv-x="432" vert-adv-y="1000"  />

      
      <glyph glyph-name="uniae" unicode="&#xae;" d="M60 352Q60 503 163.50 609Q267 715 413 715Q562 715 666 609.50Q770 504 770 352Q770 200 666 94Q562-12 413-12Q266-12 163 94Q60 200 60 352M118 352Q118 221 203 131.50Q288 42 413 42Q540 42 626 131.50Q712 221 712 352Q712 482 625.50 571.50Q539 661 413 661Q289 661 203.50 571.50Q118 482 118 352M294 157L294 547L433 547Q486 547 518.50 515Q551 483 551 431Q551 390 529 362.50Q507 335 477 328L477 326Q481 321 490 304L566 157L503 157L426 315L351 315L351 157L294 157M351 359L424 359Q456 359 474.50 378.50Q493 398 493 431Q493 464 474.50 482Q456 500 424 500L351 500L351 359Z"  horiz-adv-x="829" vert-adv-y="1000"  />

      
      <glyph glyph-name="uniaf" unicode="&#xaf;" d="M129 785L129 840L375 840L375 785L129 785Z"  horiz-adv-x="504" vert-adv-y="1000"  />

      
      <glyph glyph-name="unib0" unicode="&#xb0;" d="M298.50 476.50Q298.50 476.50 277.75 456.25Q257 436 199 436Q141 436 100 476.50Q59 517 59 575Q59 632 100 673Q141 714 199 714Q257 714 298.50 673Q340 632 340 575Q340 517 298.50 476.50M141.50 516Q141.50 516 153.25 504Q165 492 199 492Q233 492 256.50 516Q280 540 280 575Q280 609 256.50 633.50Q233 658 199 658Q165 658 141.50 633.50Q118 609 118 575Q118 540 141.50 516Z"  horiz-adv-x="398" vert-adv-y="1000"  />

      
      <glyph glyph-name="unib1" unicode="&#xb1;" d="M23 255L23 313L254 313L254 568L315 568L315 313L545 313L545 255L315 255L315 0L254 0L254 255L23 255M41-104L527-104L527-162L41-162L41-104Z"  horiz-adv-x="568" vert-adv-y="1000"  />

      
      <glyph glyph-name="unib2" unicode="&#xb2;" d="M51 423Q48 440 48 454Q48 500 70.50 536Q93 572 124.50 595Q156 618 188 638Q220 658 242.50 683.50Q265 709 265 740Q265 772 241.50 794.50Q218 817 183 817Q134 817 93 768L58 803Q77 831 111.50 850Q146 869 184 869Q246 869 283.50 833Q321 797 321 742Q321 701 299.50 669Q278 637 247 615.50Q216 594 185 575Q154 556 131 530Q108 504 107 473L329 473L329 423L51 423Z"  horiz-adv-x="381" vert-adv-y="1000"  />

      
      <glyph glyph-name="unib3" unicode="&#xb3;" d="M181 413Q140 413 101 430Q62 447 38 479L73 517Q88 496 117 480.50Q146 465 180 465Q216 465 244.50 490.50Q273 516 273 554Q273 592 243.50 615Q214 638 175 638L142 638L128 668L227 784L252 809L252 811Q234 808 215 808L62 808L62 859L324 859L324 822L205 683Q255 678 292.50 646Q330 614 330 554Q330 496 287 454.50Q244 413 181 413Z"  horiz-adv-x="381" vert-adv-y="1000"  />

      
      <glyph glyph-name="unib4" unicode="&#xb4;" d="M178 752L247 871L326 871L239 752L178 752Z"  horiz-adv-x="504" vert-adv-y="1000"  />

      
      <glyph glyph-name="unib5" unicode="&#xb5;" d="M145 30Q152-21 152-46L152-200L89-200L89 503L157 503L157 201Q157 167 161 143.50Q165 120 175.50 97.50Q186 75 208.50 63.50Q231 52 266 52Q350 52 401 114Q452 176 452 262L452 503L520 503L520 0L454 0L454 77L456 115L454 115Q452 110 448 101.50Q444 93 427.50 71Q411 49 390.50 32Q370 15 334 1.50Q298-12 256-12Q180-12 147 30L145 30Z"  horiz-adv-x="589" vert-adv-y="1000"  />

      
      <glyph glyph-name="uni03BC" unicode="&#x03BC;" d="M145 30Q152-21 152-46L152-200L89-200L89 503L157 503L157 201Q157 167 161 143.50Q165 120 175.50 97.50Q186 75 208.50 63.50Q231 52 266 52Q350 52 401 114Q452 176 452 262L452 503L520 503L520 0L454 0L454 77L456 115L454 115Q452 110 448 101.50Q444 93 427.50 71Q411 49 390.50 32Q370 15 334 1.50Q298-12 256-12Q180-12 147 30L145 30Z"  horiz-adv-x="589" vert-adv-y="1000"  />

      
      <glyph glyph-name="unib6" unicode="&#xb6;" d="M279-50L279 241Q181 241 110.50 308.50Q40 376 40 473Q40 569 110 636Q180 703 278 703L517 703L517 641L336 641L336-50L279-50M398-50L398 581L456 581L456-50L398-50Z"  horiz-adv-x="568" vert-adv-y="1000"  />

      
      <glyph glyph-name="unib7" unicode="&#xb7;" d="M74 247L74 330L154 330L154 247L74 247Z"  horiz-adv-x="229" vert-adv-y="1000"  />

      
      <glyph glyph-name="unib8" unicode="&#xb8;" d="M200-91L226 20L266 13L266 5L255-55Q287-60 306-78.50Q325-97 325-126Q325-167 297.50-186Q270-205 229-205Q199-205 179-200L179-152Q194-158 221-158Q272-158 272-124Q272-90 215-90L200-91Z"  horiz-adv-x="504" vert-adv-y="1000"  />

      
      <glyph glyph-name="unib9" unicode="&#xb9;" d="M78 423L78 473L173 473L173 762L174 786L173 786Q169 778 152 762L112 723L77 760L176 859L228 859L228 473L320 473L320 423L78 423Z"  horiz-adv-x="381" vert-adv-y="1000"  />

      
      <glyph glyph-name="uniba" unicode="&#xba;" d="M360.50 431Q360.50 431 336.25 407Q312 383 242 383Q172 383 123.50 431Q75 479 75 550Q75 619 124 666.50Q173 714 242 714Q311 714 360 666.50Q409 619 409 550Q409 479 360.50 431M162.50 467Q162.50 467 178.75 450.50Q195 434 242 434Q289 434 321.50 467Q354 500 354 550Q354 599 321.50 631.50Q289 664 242 664Q195 664 162.50 631.50Q130 599 130 550Q130 500 162.50 467M92 264L92 310L395 310L395 264L92 264Z"  horiz-adv-x="486" vert-adv-y="1000"  />

      
      <glyph glyph-name="unibb" unicode="&#xbb;" d="M237 77L401 282L237 488L311 488L475 282L311 77L237 77M58 77L222 282L58 488L132 488L296 282L132 77L58 77Z"  horiz-adv-x="526" vert-adv-y="1000"  />

      
      <glyph glyph-name="unibc" unicode="&#xbc;" d="M768 0L768 114L557 114L557 152L769 436L823 436L823 164L888 164L888 114L823 114L823 0L768 0M625 164L768 164L768 300L772 362L770 362Q754 335 737 313L625 166L625 164M314 0L255 0L591 703L649 703L314 0M62 268L62 318L157 318L157 607L158 631L157 631Q153 623 136 607L96 568L61 605L160 704L212 704L212 318L304 318L304 268L62 268Z"  horiz-adv-x="931" vert-adv-y="1000"  />

      
      <glyph glyph-name="unibd" unicode="&#xbd;" d="M588 0Q585 16 585 31Q585 77 607.50 113Q630 149 662 172Q694 195 725.50 215Q757 235 779.50 260.50Q802 286 802 317Q802 349 778.50 371.50Q755 394 720 394Q671 394 630 345L595 380Q614 408 648.50 427Q683 446 721 446Q783 446 820.50 410Q858 374 858 319Q858 278 836.50 246Q815 214 784 192.50Q753 171 722 152Q691 133 668 107Q645 81 644 50L866 50L866 0L588 0M314 0L255 0L591 703L649 703L314 0M62 268L62 318L157 318L157 607L158 631L157 631Q153 623 136 607L96 568L61 605L160 704L212 704L212 318L304 318L304 268L62 268Z"  horiz-adv-x="920" vert-adv-y="1000"  />

      
      <glyph glyph-name="unibe" unicode="&#xbe;" d="M788 0L788 114L577 114L577 152L789 436L843 436L843 164L908 164L908 114L843 114L843 0L788 0M645 164L788 164L788 300L792 362L790 362Q774 335 757 313L645 166L645 164M190 258Q149 258 110 275Q71 292 47 324L82 362Q97 341 125.50 325.50Q154 310 189 310Q225 310 253.50 335.50Q282 361 282 399Q282 437 252.50 460Q223 483 184 483L151 483L137 513L236 629L261 654L261 656Q243 653 224 653L71 653L71 704L333 704L333 667L214 528Q264 523 301.50 491Q339 459 339 399Q339 341 296 299.50Q253 258 190 258M333 0L274 0L610 703L668 703L333 0Z"  horiz-adv-x="951" vert-adv-y="1000"  />

      
      <glyph glyph-name="unibf" unicode="&#xbf;" d="M287 318L287 273Q287 229 269 193.50Q251 158 225.50 134Q200 110 174.50 86.50Q149 63 131 32.50Q113 2 113-34Q113-83 150-116Q187-149 244-149Q309-149 364-107L402-157Q374-182 330-198Q286-214 241-214Q155-214 98-164Q41-114 41-37Q41 9 59.50 46Q78 83 104 107.50Q130 132 156.50 155Q183 178 201.50 208.50Q220 239 220 275L220 318L287 318M293 502L293 423L214 423L214 502L293 502Z"  horiz-adv-x="440" vert-adv-y="1000"  />

      
      <glyph glyph-name="unic0" unicode="&#xc0;" d="M21 0L279 703L353 703L611 0L538 0L457 224L174 224L94 0L21 0M195 284L436 284L344 539L317 631L315 631Q300 572 288 539L195 284M285 752L199 871L278 871L347 752L285 752Z"  horiz-adv-x="632" vert-adv-y="1000"  />

      
      <glyph glyph-name="unic1" unicode="&#xc1;" d="M21 0L279 703L353 703L611 0L538 0L457 224L174 224L94 0L21 0M195 284L436 284L344 539L317 631L315 631Q300 572 288 539L195 284M283 752L352 871L431 871L344 752L283 752Z"  horiz-adv-x="632" vert-adv-y="1000"  />

      
      <glyph glyph-name="unic2" unicode="&#xc2;" d="M21 0L279 703L353 703L611 0L538 0L457 224L174 224L94 0L21 0M195 284L436 284L344 539L317 631L315 631Q300 572 288 539L195 284M195 752L278 871L353 871L437 752L371 752L317 832L315 832L261 752L195 752Z"  horiz-adv-x="632" vert-adv-y="1000"  />

      
      <glyph glyph-name="unic3" unicode="&#xc3;" d="M21 0L279 703L353 703L611 0L538 0L457 224L174 224L94 0L21 0M195 284L436 284L344 539L317 631L315 631Q300 572 288 539L195 284M160 755Q160 871 252 871Q281 871 302.50 853.50Q324 836 342 818Q360 800 378 800Q400 800 409 821.50Q418 843 418 868L472 868Q472 752 380 752Q351 752 329.50 770Q308 788 290 805.50Q272 823 254 823Q215 823 215 755L160 755Z"  horiz-adv-x="632" vert-adv-y="1000"  />

      
      <glyph glyph-name="unic4" unicode="&#xc4;" d="M21 0L279 703L353 703L611 0L538 0L457 224L174 224L94 0L21 0M195 284L436 284L344 539L317 631L315 631Q300 572 288 539L195 284M361 785L361 871L423 871L423 785L361 785M210 785L210 871L271 871L271 785L210 785Z"  horiz-adv-x="632" vert-adv-y="1000"  />

      
      <glyph glyph-name="unic5" unicode="&#xc5;" d="M21 0L279 703L353 703L611 0L538 0L457 224L174 224L94 0L21 0M195 284L436 284L344 539L317 631L315 631Q300 572 288 539L195 284M316 742Q284 742 262 761.50Q240 781 240 812Q240 843 262 863Q284 883 316 883Q347 883 369 863Q391 843 391 812Q391 781 369 761.50Q347 742 316 742M316 779Q330 779 339 788.50Q348 798 348 812Q348 827 339 836.50Q330 846 316 846Q301 846 292 836.50Q283 827 283 812Q283 798 292 788.50Q301 779 316 779Z"  horiz-adv-x="632" vert-adv-y="1000"  />

      
      <glyph glyph-name="unic6" unicode="&#xc6;" d="M17 0L306 703L787 703L787 641L460 641L460 385L727 385L727 323L460 323L460 62L805 62L805 0L391 0L391 324L220 324L90 0L17 0M245 384L391 384L391 641L350 641L245 384Z"  horiz-adv-x="850" vert-adv-y="1000"  />

      
      <glyph glyph-name="unic7" unicode="&#xc7;" d="M359-91L378-11Q233 1 144 104.50Q55 208 55 356Q55 510 154.50 612.50Q254 715 408 715Q567 715 662 624L625 573Q584 609 526 629.50Q468 650 410 650Q284 650 205.50 566.50Q127 483 127 357Q127 229 206 141Q285 53 413 53Q545 53 640 146L680 97Q573-8 422-12L414-55Q446-60 465-78.50Q484-97 484-126Q484-167 456.50-186Q429-205 388-205Q358-205 338-200L338-152Q353-158 380-158Q431-158 431-124Q431-90 374-90L359-91Z"  horiz-adv-x="719" vert-adv-y="1000"  />

      
      <glyph glyph-name="unic8" unicode="&#xc8;" d="M101 0L101 703L496 703L496 641L170 641L170 385L437 385L437 323L170 323L170 62L515 62L515 0L101 0M279 752L193 871L272 871L341 752L279 752Z"  horiz-adv-x="560" vert-adv-y="1000"  />

      
      <glyph glyph-name="unic9" unicode="&#xc9;" d="M277 752L346 871L425 871L338 752L277 752M101 0L101 703L496 703L496 641L170 641L170 385L437 385L437 323L170 323L170 62L515 62L515 0L101 0Z"  horiz-adv-x="560" vert-adv-y="1000"  />

      
      <glyph glyph-name="unica" unicode="&#xca;" d="M189 752L272 871L347 871L431 752L365 752L311 832L309 832L255 752L189 752M101 0L101 703L496 703L496 641L170 641L170 385L437 385L437 323L170 323L170 62L515 62L515 0L101 0Z"  horiz-adv-x="560" vert-adv-y="1000"  />

      
      <glyph glyph-name="unicb" unicode="&#xcb;" d="M355 785L355 871L417 871L417 785L355 785M204 785L204 871L265 871L265 785L204 785M101 0L101 703L496 703L496 641L170 641L170 385L437 385L437 323L170 323L170 62L515 62L515 0L101 0Z"  horiz-adv-x="560" vert-adv-y="1000"  />

      
      <glyph glyph-name="unicc" unicode="&#xcc;" d="M101 0L101 703L170 703L170 0L101 0M106 752L20 871L99 871L168 752L106 752Z"  horiz-adv-x="271" vert-adv-y="1000"  />

      
      <glyph glyph-name="unicd" unicode="&#xcd;" d="M101 0L101 703L170 703L170 0L101 0M104 752L173 871L252 871L165 752L104 752Z"  horiz-adv-x="271" vert-adv-y="1000"  />

      
      <glyph glyph-name="unice" unicode="&#xce;" d="M101 0L101 703L170 703L170 0L101 0M16 752L99 871L174 871L258 752L192 752L138 832L136 832L82 752L16 752Z"  horiz-adv-x="271" vert-adv-y="1000"  />

      
      <glyph glyph-name="unicf" unicode="&#xcf;" d="M101 0L101 703L170 703L170 0L101 0M182 785L182 871L244 871L244 785L182 785M31 785L31 871L92 871L92 785L31 785Z"  horiz-adv-x="271" vert-adv-y="1000"  />

      
      <glyph glyph-name="unid0" unicode="&#xd0;" d="M107 0L107 323L47 323L47 383L107 383L107 703L333 703Q494 703 590 609.50Q686 516 686 352Q686 187 590 93.50Q494 0 333 0L107 0M176 62L326 62Q458 62 536 137.50Q614 213 614 352Q614 490 536 565.50Q458 641 326 641L176 641L176 383L343 383L343 323L176 323L176 62Z"  horiz-adv-x="744" vert-adv-y="1000"  />

      
      <glyph glyph-name="unid1" unicode="&#xd1;" d="M101 0L101 703L168 703L527 197L585 102L587 102Q581 160 581 197L581 703L650 703L650 0L583 0L224 506L166 601L164 601Q170 543 170 506L170 0L101 0M219 755Q219 871 311 871Q340 871 361.50 853.50Q383 836 401 818Q419 800 437 800Q459 800 468 821.50Q477 843 477 868L531 868Q531 752 439 752Q410 752 388.50 770Q367 788 349 805.50Q331 823 313 823Q274 823 274 755L219 755Z"  horiz-adv-x="751" vert-adv-y="1000"  />

      
      <glyph glyph-name="unid2" unicode="&#xd2;" d="M54 357Q54 508 156.50 611.50Q259 715 412 715Q566 715 668 612Q770 509 770 357Q770 201 668 94.50Q566-12 412-12Q259-12 156.50 94.50Q54 201 54 357M126 357Q126 228 207.50 140.50Q289 53 412 53Q535 53 616.50 140Q698 227 698 357Q698 482 616.50 566Q535 650 412 650Q289 650 207.50 566Q126 482 126 357M381 752L295 871L374 871L443 752L381 752Z"  horiz-adv-x="825" vert-adv-y="1000"  />

      
      <glyph glyph-name="unid3" unicode="&#xd3;" d="M379 752L448 871L527 871L440 752L379 752M54 357Q54 508 156.50 611.50Q259 715 412 715Q566 715 668 612Q770 509 770 357Q770 201 668 94.50Q566-12 412-12Q259-12 156.50 94.50Q54 201 54 357M126 357Q126 228 207.50 140.50Q289 53 412 53Q535 53 616.50 140Q698 227 698 357Q698 482 616.50 566Q535 650 412 650Q289 650 207.50 566Q126 482 126 357Z"  horiz-adv-x="825" vert-adv-y="1000"  />

      
      <glyph glyph-name="unid4" unicode="&#xd4;" d="M291 752L374 871L449 871L533 752L467 752L413 832L411 832L357 752L291 752M54 357Q54 508 156.50 611.50Q259 715 412 715Q566 715 668 612Q770 509 770 357Q770 201 668 94.50Q566-12 412-12Q259-12 156.50 94.50Q54 201 54 357M126 357Q126 228 207.50 140.50Q289 53 412 53Q535 53 616.50 140Q698 227 698 357Q698 482 616.50 566Q535 650 412 650Q289 650 207.50 566Q126 482 126 357Z"  horiz-adv-x="825" vert-adv-y="1000"  />

      
      <glyph glyph-name="unid5" unicode="&#xd5;" d="M54 357Q54 508 156.50 611.50Q259 715 412 715Q566 715 668 612Q770 509 770 357Q770 201 668 94.50Q566-12 412-12Q259-12 156.50 94.50Q54 201 54 357M126 357Q126 228 207.50 140.50Q289 53 412 53Q535 53 616.50 140Q698 227 698 357Q698 482 616.50 566Q535 650 412 650Q289 650 207.50 566Q126 482 126 357M256 755Q256 871 348 871Q377 871 398.50 853.50Q420 836 438 818Q456 800 474 800Q496 800 505 821.50Q514 843 514 868L568 868Q568 752 476 752Q447 752 425.50 770Q404 788 386 805.50Q368 823 350 823Q311 823 311 755L256 755Z"  horiz-adv-x="825" vert-adv-y="1000"  />

      
      <glyph glyph-name="unid6" unicode="&#xd6;" d="M457 785L457 871L519 871L519 785L457 785M306 785L306 871L367 871L367 785L306 785M54 357Q54 508 156.50 611.50Q259 715 412 715Q566 715 668 612Q770 509 770 357Q770 201 668 94.50Q566-12 412-12Q259-12 156.50 94.50Q54 201 54 357M126 357Q126 228 207.50 140.50Q289 53 412 53Q535 53 616.50 140Q698 227 698 357Q698 482 616.50 566Q535 650 412 650Q289 650 207.50 566Q126 482 126 357Z"  horiz-adv-x="825" vert-adv-y="1000"  />

      
      <glyph glyph-name="unid7" unicode="&#xd7;" d="M28 41L244 284L28 527L70 568L284 328L497 568L540 527L323 284L540 41L497 0L284 240L70 0L28 41Z"  horiz-adv-x="568" vert-adv-y="1000"  />

      
      <glyph glyph-name="unid8" unicode="&#xd8;" d="M131 5L180 74Q121 125 87.50 198.50Q54 272 54 356Q54 508 158 611.50Q262 715 412 715Q514 715 601 661L649 728L690 698L643 632Q770 526 770 356Q770 202 666 95Q562-12 412-12Q308-12 221 44L172-24L131 5M221 131L562 607Q496 650 412 650Q293 650 209.50 565.50Q126 481 126 356Q126 289 152 230Q178 171 221 131M259 98Q327 53 412 53Q532 53 615 140Q698 227 698 355Q698 491 602 577L259 98Z"  horiz-adv-x="824" vert-adv-y="1000"  />

      
      <glyph glyph-name="unid9" unicode="&#xd9;" d="M93 245L93 703L162 703L162 246Q162 156 216 104.50Q270 53 361 53Q453 53 507 105Q561 157 561 248L561 703L631 703L631 245Q631 129 556.50 58.50Q482-12 362-12Q242-12 167.50 58.50Q93 129 93 245M330 752L244 871L323 871L392 752L330 752Z"  horiz-adv-x="723" vert-adv-y="1000"  />

      
      <glyph glyph-name="unida" unicode="&#xda;" d="M328 752L397 871L476 871L389 752L328 752M93 245L93 703L162 703L162 246Q162 156 216 104.50Q270 53 361 53Q453 53 507 105Q561 157 561 248L561 703L631 703L631 245Q631 129 556.50 58.50Q482-12 362-12Q242-12 167.50 58.50Q93 129 93 245Z"  horiz-adv-x="723" vert-adv-y="1000"  />

      
      <glyph glyph-name="unidb" unicode="&#xdb;" d="M240 752L323 871L398 871L482 752L416 752L362 832L360 832L306 752L240 752M93 245L93 703L162 703L162 246Q162 156 216 104.50Q270 53 361 53Q453 53 507 105Q561 157 561 248L561 703L631 703L631 245Q631 129 556.50 58.50Q482-12 362-12Q242-12 167.50 58.50Q93 129 93 245Z"  horiz-adv-x="723" vert-adv-y="1000"  />

      
      <glyph glyph-name="unidc" unicode="&#xdc;" d="M406 785L406 871L468 871L468 785L406 785M255 785L255 871L316 871L316 785L255 785M93 245L93 703L162 703L162 246Q162 156 216 104.50Q270 53 361 53Q453 53 507 105Q561 157 561 248L561 703L631 703L631 245Q631 129 556.50 58.50Q482-12 362-12Q242-12 167.50 58.50Q93 129 93 245Z"  horiz-adv-x="723" vert-adv-y="1000"  />

      
      <glyph glyph-name="unidd" unicode="&#xdd;" d="M255 0L255 302L17 703L96 703L245 448L288 364L290 364Q312 411 333 448L482 703L561 703L324 302L324 0L255 0M256 752L325 871L404 871L317 752L256 752Z"  horiz-adv-x="579" vert-adv-y="1000"  />

      
      <glyph glyph-name="unide" unicode="&#xde;" d="M101 0L101 703L170 703L170 578L344 578Q439 578 500 520Q561 462 561 365Q561 269 499.50 210Q438 151 342 151L170 151L170 0L101 0M170 213L335 213Q406 213 448 253.50Q490 294 490 365Q490 436 448.50 476Q407 516 336 516L170 516L170 213Z"  horiz-adv-x="600" vert-adv-y="1000"  />

      
      <glyph glyph-name="unidf" unicode="&#xdf;" d="M81 0L81 531Q81 616 141.50 665.50Q202 715 283 715Q361 715 409 671.50Q457 628 457 566Q457 531 439.50 500.50Q422 470 401.50 452Q381 434 363.50 412Q346 390 346 369Q346 351 366 331.50Q386 312 415 293.50Q444 275 473 254Q502 233 522 202Q542 171 542 136Q542 68 495 30.50Q448-7 380-7Q291-7 232 25L232 90Q291 55 375 55Q416 55 444 76Q472 97 472 138Q472 169 441.50 198.50Q411 228 374 248Q337 268 306.50 300Q276 332 276 367Q276 396 293.50 423Q311 450 332 468Q353 486 370.50 512Q388 538 388 565Q388 600 359.50 627Q331 654 280 654Q227 654 188 620Q149 586 149 526L149 0L81 0Z"  horiz-adv-x="574" vert-adv-y="1000"  />

      
      <glyph glyph-name="unie0" unicode="&#xe0;" d="M37 135Q37 310 343 310L373 310L373 324Q373 454 249 454Q172 454 106 406L75 458Q105 484 154 499.50Q203 515 253 515Q344 515 392.50 465.50Q441 416 441 322L441 0L376 0L376 59L379 101L377 101Q356 53 310.50 20.50Q265-12 207-12Q138-12 87.50 27Q37 66 37 135M106 141Q106 103 136 74Q166 45 219 45Q288 45 330.50 103Q373 161 373 233L373 256L344 256Q312 256 288.50 255Q265 254 227.50 247.50Q190 241 166 230Q142 219 124 196Q106 173 106 141M225 585L139 704L218 704L287 585L225 585Z"  horiz-adv-x="517" vert-adv-y="1000"  />

      
      <glyph glyph-name="unie1" unicode="&#xe1;" d="M37 135Q37 310 343 310L373 310L373 324Q373 454 249 454Q172 454 106 406L75 458Q105 484 154 499.50Q203 515 253 515Q344 515 392.50 465.50Q441 416 441 322L441 0L376 0L376 59L379 101L377 101Q356 53 310.50 20.50Q265-12 207-12Q138-12 87.50 27Q37 66 37 135M106 141Q106 103 136 74Q166 45 219 45Q288 45 330.50 103Q373 161 373 233L373 256L344 256Q312 256 288.50 255Q265 254 227.50 247.50Q190 241 166 230Q142 219 124 196Q106 173 106 141M221 585L290 704L369 704L282 585L221 585Z"  horiz-adv-x="517" vert-adv-y="1000"  />

      
      <glyph glyph-name="unie2" unicode="&#xe2;" d="M37 135Q37 310 343 310L373 310L373 324Q373 454 249 454Q172 454 106 406L75 458Q105 484 154 499.50Q203 515 253 515Q344 515 392.50 465.50Q441 416 441 322L441 0L376 0L376 59L379 101L377 101Q356 53 310.50 20.50Q265-12 207-12Q138-12 87.50 27Q37 66 37 135M106 141Q106 103 136 74Q166 45 219 45Q288 45 330.50 103Q373 161 373 233L373 256L344 256Q312 256 288.50 255Q265 254 227.50 247.50Q190 241 166 230Q142 219 124 196Q106 173 106 141M133 585L216 704L291 704L375 585L309 585L255 665L253 665L199 585L133 585Z"  horiz-adv-x="517" vert-adv-y="1000"  />

      
      <glyph glyph-name="unie3" unicode="&#xe3;" d="M37 135Q37 310 343 310L373 310L373 324Q373 454 249 454Q172 454 106 406L75 458Q105 484 154 499.50Q203 515 253 515Q344 515 392.50 465.50Q441 416 441 322L441 0L376 0L376 59L379 101L377 101Q356 53 310.50 20.50Q265-12 207-12Q138-12 87.50 27Q37 66 37 135M106 141Q106 103 136 74Q166 45 219 45Q288 45 330.50 103Q373 161 373 233L373 256L344 256Q312 256 288.50 255Q265 254 227.50 247.50Q190 241 166 230Q142 219 124 196Q106 173 106 141M98 588Q98 704 190 704Q219 704 240.50 686Q262 668 280 650.50Q298 633 316 633Q338 633 347 654.50Q356 676 356 701L410 701Q410 585 318 585Q289 585 267.50 602.50Q246 620 228 638Q210 656 192 656Q153 656 153 588L98 588Z"  horiz-adv-x="517" vert-adv-y="1000"  />

      
      <glyph glyph-name="unie4" unicode="&#xe4;" d="M37 135Q37 310 343 310L373 310L373 324Q373 454 249 454Q172 454 106 406L75 458Q105 484 154 499.50Q203 515 253 515Q344 515 392.50 465.50Q441 416 441 322L441 0L376 0L376 59L379 101L377 101Q356 53 310.50 20.50Q265-12 207-12Q138-12 87.50 27Q37 66 37 135M106 141Q106 103 136 74Q166 45 219 45Q288 45 330.50 103Q373 161 373 233L373 256L344 256Q312 256 288.50 255Q265 254 227.50 247.50Q190 241 166 230Q142 219 124 196Q106 173 106 141M299 618L299 704L361 704L361 618L299 618M148 618L148 704L209 704L209 618L148 618Z"  horiz-adv-x="517" vert-adv-y="1000"  />

      
      <glyph glyph-name="unie5" unicode="&#xe5;" d="M37 135Q37 310 343 310L373 310L373 324Q373 454 249 454Q172 454 106 406L75 458Q105 484 154 499.50Q203 515 253 515Q344 515 392.50 465.50Q441 416 441 322L441 0L376 0L376 59L379 101L377 101Q356 53 310.50 20.50Q265-12 207-12Q138-12 87.50 27Q37 66 37 135M106 141Q106 103 136 74Q166 45 219 45Q288 45 330.50 103Q373 161 373 233L373 256L344 256Q312 256 288.50 255Q265 254 227.50 247.50Q190 241 166 230Q142 219 124 196Q106 173 106 141M254 575Q222 575 200 594.50Q178 614 178 645Q178 676 200 696Q222 716 254 716Q285 716 307 696Q329 676 329 645Q329 614 307 594.50Q285 575 254 575M254 612Q268 612 277 621.50Q286 631 286 645Q286 660 277 669.50Q268 679 254 679Q239 679 230 669.50Q221 660 221 645Q221 631 230 621.50Q239 612 254 612Z"  horiz-adv-x="517" vert-adv-y="1000"  />

      
      <glyph glyph-name="unie6" unicode="&#xe6;" d="M38 137Q38 171 49.50 198Q61 225 78 242.50Q95 260 122.50 272.50Q150 285 174 291.50Q198 298 232 301.50Q266 305 287.50 305.50Q309 306 340 306L373 306L373 324Q373 454 245 454Q170 454 106 406L74 457Q104 484 152 499.50Q200 515 249 515Q384 515 419 411L421 411Q483 515 611 515Q709 515 764.50 449.50Q820 384 820 286Q820 285 817 252L439 252Q441 156 493 103Q545 50 627 50Q716 50 779 110L810 58Q777 27 725.50 7.50Q674-12 624-12Q547-12 489 25Q431 62 403 128L401 128Q398 117 391.50 103Q385 89 369 67.50Q353 46 333.50 29.50Q314 13 281.50 0.50Q249-12 211-12Q138-12 88 27.50Q38 67 38 137M443 306L750 306Q747 380 706.50 418.50Q666 457 608 457Q543 457 499 418Q455 379 443 306M108 141Q108 102 137.50 73.50Q167 45 220 45Q289 45 331.50 103.50Q374 162 374 234L374 252L315 252Q276 252 245.50 248.50Q215 245 180.50 235Q146 225 127 201Q108 177 108 141Z"  horiz-adv-x="866" vert-adv-y="1000"  />

      
      <glyph glyph-name="unie7" unicode="&#xe7;" d="M257-91L276-10Q175 1 111 73Q47 145 47 251Q47 366 123 440.50Q199 515 311 515Q363 515 413 496.50Q463 478 495 443L460 392Q433 420 393.50 437Q354 454 313 454Q229 454 173 397Q117 340 117 251Q117 163 173.50 106.50Q230 50 315 50Q359 50 403 68.50Q447 87 476 119L507 68Q438-7 320-12L312-55Q344-60 363-78.50Q382-97 382-126Q382-167 354.50-186Q327-205 286-205Q256-205 236-200L236-152Q251-158 278-158Q329-158 329-124Q329-90 272-90L257-91Z"  horiz-adv-x="544" vert-adv-y="1000"  />

      
      <glyph glyph-name="unie8" unicode="&#xe8;" d="M47 251Q47 371 118.50 443Q190 515 296 515Q396 515 451 448.50Q506 382 506 283Q506 271 504 249L118 249Q120 156 176 103Q232 50 313 50Q400 50 466 110L497 58Q462 26 411.50 7Q361-12 311-12Q198-12 122.50 62Q47 136 47 251M121 303L437 303Q434 378 394 418.50Q354 459 294 459Q229 459 181 418Q133 377 121 303M266 585L180 704L259 704L328 585L266 585Z"  horiz-adv-x="553" vert-adv-y="1000"  />

      
      <glyph glyph-name="unie9" unicode="&#xe9;" d="M263 585L332 704L411 704L324 585L263 585M47 251Q47 371 118.50 443Q190 515 296 515Q396 515 451 448.50Q506 382 506 283Q506 271 504 249L118 249Q120 156 176 103Q232 50 313 50Q400 50 466 110L497 58Q462 26 411.50 7Q361-12 311-12Q198-12 122.50 62Q47 136 47 251M121 303L437 303Q434 378 394 418.50Q354 459 294 459Q229 459 181 418Q133 377 121 303Z"  horiz-adv-x="553" vert-adv-y="1000"  />

      
      <glyph glyph-name="uniea" unicode="&#xea;" d="M175 585L258 704L333 704L417 585L351 585L297 665L295 665L241 585L175 585M47 251Q47 371 118.50 443Q190 515 296 515Q396 515 451 448.50Q506 382 506 283Q506 271 504 249L118 249Q120 156 176 103Q232 50 313 50Q400 50 466 110L497 58Q462 26 411.50 7Q361-12 311-12Q198-12 122.50 62Q47 136 47 251M121 303L437 303Q434 378 394 418.50Q354 459 294 459Q229 459 181 418Q133 377 121 303Z"  horiz-adv-x="553" vert-adv-y="1000"  />

      
      <glyph glyph-name="unieb" unicode="&#xeb;" d="M341 618L341 704L403 704L403 618L341 618M190 618L190 704L251 704L251 618L190 618M47 251Q47 371 118.50 443Q190 515 296 515Q396 515 451 448.50Q506 382 506 283Q506 271 504 249L118 249Q120 156 176 103Q232 50 313 50Q400 50 466 110L497 58Q462 26 411.50 7Q361-12 311-12Q198-12 122.50 62Q47 136 47 251M121 303L437 303Q434 378 394 418.50Q354 459 294 459Q229 459 181 418Q133 377 121 303Z"  horiz-adv-x="553" vert-adv-y="1000"  />

      
      <glyph glyph-name="uniec" unicode="&#xec;" d="M81 0L81 503L149 503L149 0L81 0M86 585L0 704L79 704L148 585L86 585Z"  horiz-adv-x="230" vert-adv-y="1000"  />

      
      <glyph glyph-name="unied" unicode="&#xed;" d="M84 585L153 704L232 704L145 585L84 585M81 0L81 503L149 503L149 0L81 0Z"  horiz-adv-x="230" vert-adv-y="1000"  />

      
      <glyph glyph-name="uniee" unicode="&#xee;" d="M-4 585L79 704L154 704L238 585L172 585L118 665L116 665L62 585L-4 585M81 0L81 503L149 503L149 0L81 0Z"  horiz-adv-x="230" vert-adv-y="1000"  />

      
      <glyph glyph-name="unief" unicode="&#xef;" d="M162 618L162 704L224 704L224 618L162 618M11 618L11 704L72 704L72 618L11 618M81 0L81 503L149 503L149 0L81 0Z"  horiz-adv-x="230" vert-adv-y="1000"  />

      
      <glyph glyph-name="unif0" unicode="&#xf0;" d="M49 232Q49 328 112.50 397.50Q176 467 288 467Q315 467 339.50 461.50Q364 456 380 448Q396 440 408.50 431.50Q421 423 426 418L432 412L434 412Q400 511 310 572L134 492L120 540L256 603Q192 636 114 654L133 711Q247 685 330 635L461 694L474 646L377 601Q527 482 527 272Q527 201 503 139Q479 77 421 32.50Q363-12 280-12Q175-12 112 61Q49 134 49 232M119 231Q119 157 163 103Q207 49 282 49Q368 49 413 113.50Q458 178 458 261Q458 325 413 367Q368 409 295 409Q210 409 164.50 356.50Q119 304 119 231Z"  horiz-adv-x="579" vert-adv-y="1000"  />

      
      <glyph glyph-name="unif1" unicode="&#xf1;" d="M81 0L81 503L148 503L148 424L144 384L146 384Q165 430 217.50 472.50Q270 515 349 515Q440 515 479 466Q518 417 518 320L518 0L450 0L450 302Q450 373 428 412Q406 451 340 451Q259 451 204 392Q149 333 149 246L149 0L81 0M153 588Q153 704 245 704Q274 704 295.50 686Q317 668 335 650.50Q353 633 371 633Q393 633 402 654.50Q411 676 411 701L465 701Q465 585 373 585Q344 585 322.50 602.50Q301 620 283 638Q265 656 247 656Q208 656 208 588L153 588Z"  horiz-adv-x="594" vert-adv-y="1000"  />

      
      <glyph glyph-name="unif2" unicode="&#xf2;" d="M47 254Q47 365 124 440Q201 515 312 515Q423 515 500.50 440Q578 365 578 254Q578 141 500.50 64.50Q423-12 312-12Q201-12 124 64.50Q47 141 47 254M117 254Q117 166 173.50 108Q230 50 312 50Q394 50 451 108Q508 166 508 254Q508 339 451 396.50Q394 454 312 454Q230 454 173.50 396.50Q117 339 117 254M281 585L195 704L274 704L343 585L281 585Z"  horiz-adv-x="624" vert-adv-y="1000"  />

      
      <glyph glyph-name="unif3" unicode="&#xf3;" d="M279 585L348 704L427 704L340 585L279 585M47 254Q47 365 124 440Q201 515 312 515Q423 515 500.50 440Q578 365 578 254Q578 141 500.50 64.50Q423-12 312-12Q201-12 124 64.50Q47 141 47 254M117 254Q117 166 173.50 108Q230 50 312 50Q394 50 451 108Q508 166 508 254Q508 339 451 396.50Q394 454 312 454Q230 454 173.50 396.50Q117 339 117 254Z"  horiz-adv-x="624" vert-adv-y="1000"  />

      
      <glyph glyph-name="unif4" unicode="&#xf4;" d="M191 585L274 704L349 704L433 585L367 585L313 665L311 665L257 585L191 585M47 254Q47 365 124 440Q201 515 312 515Q423 515 500.50 440Q578 365 578 254Q578 141 500.50 64.50Q423-12 312-12Q201-12 124 64.50Q47 141 47 254M117 254Q117 166 173.50 108Q230 50 312 50Q394 50 451 108Q508 166 508 254Q508 339 451 396.50Q394 454 312 454Q230 454 173.50 396.50Q117 339 117 254Z"  horiz-adv-x="624" vert-adv-y="1000"  />

      
      <glyph glyph-name="unif5" unicode="&#xf5;" d="M47 254Q47 365 124 440Q201 515 312 515Q423 515 500.50 440Q578 365 578 254Q578 141 500.50 64.50Q423-12 312-12Q201-12 124 64.50Q47 141 47 254M117 254Q117 166 173.50 108Q230 50 312 50Q394 50 451 108Q508 166 508 254Q508 339 451 396.50Q394 454 312 454Q230 454 173.50 396.50Q117 339 117 254M156 588Q156 704 248 704Q277 704 298.50 686Q320 668 338 650.50Q356 633 374 633Q396 633 405 654.50Q414 676 414 701L468 701Q468 585 376 585Q347 585 325.50 602.50Q304 620 286 638Q268 656 250 656Q211 656 211 588L156 588Z"  horiz-adv-x="624" vert-adv-y="1000"  />

      
      <glyph glyph-name="unif6" unicode="&#xf6;" d="M357 618L357 704L419 704L419 618L357 618M206 618L206 704L267 704L267 618L206 618M47 254Q47 365 124 440Q201 515 312 515Q423 515 500.50 440Q578 365 578 254Q578 141 500.50 64.50Q423-12 312-12Q201-12 124 64.50Q47 141 47 254M117 254Q117 166 173.50 108Q230 50 312 50Q394 50 451 108Q508 166 508 254Q508 339 451 396.50Q394 454 312 454Q230 454 173.50 396.50Q117 339 117 254Z"  horiz-adv-x="624" vert-adv-y="1000"  />

      
      <glyph glyph-name="unif7" unicode="&#xf7;" d="M246 433L246 507L321 507L321 433L246 433M39 255L39 313L529 313L529 255L39 255M246 61L246 135L321 135L321 61L246 61Z"  horiz-adv-x="568" vert-adv-y="1000"  />

      
      <glyph glyph-name="unif8" unicode="&#xf8;" d="M105-3L142 49Q47 126 47 254Q47 365 124.50 440Q202 515 313 515Q386 515 449 479L488 532L529 503L490 449Q579 372 579 254Q579 141 501.50 64.50Q424-12 313-12Q241-12 184 21L146-33L105-3M180 103L412 426Q364 454 313 454Q231 454 174 396.50Q117 339 117 254Q117 163 180 103M221 73Q262 50 313 50Q395 50 452 108Q509 166 509 254Q509 338 451 394L221 73Z"  horiz-adv-x="625" vert-adv-y="1000"  />

      
      <glyph glyph-name="unif9" unicode="&#xf9;" d="M75 183L75 503L144 503L144 201Q144 130 165.50 91Q187 52 253 52Q336 52 387.50 114Q439 176 439 262L439 503L507 503L507 0L440 0L440 79L444 119L442 119Q424 72 371.50 30Q319-12 244-12Q156-12 115.50 36Q75 84 75 183M262 585L176 704L255 704L324 585L262 585Z"  horiz-adv-x="588" vert-adv-y="1000"  />

      
      <glyph glyph-name="unifa" unicode="&#xfa;" d="M258 585L327 704L406 704L319 585L258 585M75 183L75 503L144 503L144 201Q144 130 165.50 91Q187 52 253 52Q336 52 387.50 114Q439 176 439 262L439 503L507 503L507 0L440 0L440 79L444 119L442 119Q424 72 371.50 30Q319-12 244-12Q156-12 115.50 36Q75 84 75 183Z"  horiz-adv-x="588" vert-adv-y="1000"  />

      
      <glyph glyph-name="unifb" unicode="&#xfb;" d="M170 585L253 704L328 704L412 585L346 585L292 665L290 665L236 585L170 585M75 183L75 503L144 503L144 201Q144 130 165.50 91Q187 52 253 52Q336 52 387.50 114Q439 176 439 262L439 503L507 503L507 0L440 0L440 79L444 119L442 119Q424 72 371.50 30Q319-12 244-12Q156-12 115.50 36Q75 84 75 183Z"  horiz-adv-x="588" vert-adv-y="1000"  />

      
      <glyph glyph-name="unifc" unicode="&#xfc;" d="M336 618L336 704L398 704L398 618L336 618M185 618L185 704L246 704L246 618L185 618M75 183L75 503L144 503L144 201Q144 130 165.50 91Q187 52 253 52Q336 52 387.50 114Q439 176 439 262L439 503L507 503L507 0L440 0L440 79L444 119L442 119Q424 72 371.50 30Q319-12 244-12Q156-12 115.50 36Q75 84 75 183Z"  horiz-adv-x="588" vert-adv-y="1000"  />

      
      <glyph glyph-name="unifd" unicode="&#xfd;" d="M45-126Q73-149 105-149Q165-149 201-67L231 5L22 503L97 503L244 136L263 83L265 83Q272 111 282 136L427 503L500 503L252-105Q232-154 194.50-182Q157-210 108-210Q85-210 62.50-202.50Q40-195 30-188L19-180L45-126M231 584L300 703L379 703L292 584L231 584Z"  horiz-adv-x="526" vert-adv-y="1000"  />

      
      <glyph glyph-name="unife" unicode="&#xfe;" d="M81-200L81 703L149 703L149 459L148 419L150 419Q170 461 215 488Q260 515 319 515Q420 515 479.50 442Q539 369 539 252Q539 134 476.50 61Q414-12 315-12Q263-12 217 13.50Q171 39 149 84L147 84Q149 66 149 40L149-200L81-200M147 251Q147 166 190.50 107.50Q234 49 308 49Q377 49 423.50 104.50Q470 160 470 252Q470 342 425.50 398Q381 454 311 454Q241 454 194 403Q147 352 147 251Z"  horiz-adv-x="588" vert-adv-y="1000"  />

      
      <glyph glyph-name="uniff" unicode="&#xff;" d="M45-126Q73-149 105-149Q165-149 201-67L231 5L22 503L97 503L244 136L263 83L265 83Q272 111 282 136L427 503L500 503L252-105Q232-154 194.50-182Q157-210 108-210Q85-210 62.50-202.50Q40-195 30-188L19-180L45-126M308 617L308 703L370 703L370 617L308 617M157 617L157 703L218 703L218 617L157 617Z"  horiz-adv-x="526" vert-adv-y="1000"  />

      
      <glyph glyph-name="uni0100" unicode="&#x0100;" d="M21 0L279 703L353 703L611 0L538 0L457 224L174 224L94 0L21 0M195 284L436 284L344 539L317 631L315 631Q300 572 288 539L195 284M193 785L193 840L439 840L439 785L193 785Z"  horiz-adv-x="632" vert-adv-y="1000"  />

      
      <glyph glyph-name="uni0101" unicode="&#x0101;" d="M37 135Q37 310 343 310L373 310L373 324Q373 454 249 454Q172 454 106 406L75 458Q105 484 154 499.50Q203 515 253 515Q344 515 392.50 465.50Q441 416 441 322L441 0L376 0L376 59L379 101L377 101Q356 53 310.50 20.50Q265-12 207-12Q138-12 87.50 27Q37 66 37 135M106 141Q106 103 136 74Q166 45 219 45Q288 45 330.50 103Q373 161 373 233L373 256L344 256Q312 256 288.50 255Q265 254 227.50 247.50Q190 241 166 230Q142 219 124 196Q106 173 106 141M131 618L131 673L377 673L377 618L131 618Z"  horiz-adv-x="517" vert-adv-y="1000"  />

      
      <glyph glyph-name="uni0102" unicode="&#x0102;" d="M21 0L279 703L353 703L611 0L538 0L457 224L174 224L94 0L21 0M195 284L436 284L344 539L317 631L315 631Q300 572 288 539L195 284M316 749Q268 749 234 777Q200 805 200 856L200 871L255 871L255 857Q255 826 272 811Q289 796 316 796Q341 796 358.50 811.50Q376 827 376 858L376 871L431 871L431 856Q431 805 397 777Q363 749 316 749Z"  horiz-adv-x="632" vert-adv-y="1000"  />

      
      <glyph glyph-name="uni0103" unicode="&#x0103;" d="M37 135Q37 310 343 310L373 310L373 324Q373 454 249 454Q172 454 106 406L75 458Q105 484 154 499.50Q203 515 253 515Q344 515 392.50 465.50Q441 416 441 322L441 0L376 0L376 59L379 101L377 101Q356 53 310.50 20.50Q265-12 207-12Q138-12 87.50 27Q37 66 37 135M106 141Q106 103 136 74Q166 45 219 45Q288 45 330.50 103Q373 161 373 233L373 256L344 256Q312 256 288.50 255Q265 254 227.50 247.50Q190 241 166 230Q142 219 124 196Q106 173 106 141M254 582Q206 582 172 610Q138 638 138 689L138 704L193 704L193 690Q193 659 210 644Q227 629 254 629Q279 629 296.50 644.50Q314 660 314 691L314 704L369 704L369 689Q369 638 335 610Q301 582 254 582Z"  horiz-adv-x="517" vert-adv-y="1000"  />

      
      <glyph glyph-name="uni0104" unicode="&#x0104;" d="M21 0L279 703L353 703L611 0Q538-56 538-99Q538-119 553.50-131.50Q569-144 584-146L600-149L585-205Q581-205 573.50-204Q566-203 547-197Q528-191 513.50-182Q499-173 487-155Q475-137 475-113Q475-52 541 0L538 0L457 224L174 224L94 0L21 0M195 284L436 284L344 539L317 631L315 631Q300 572 288 539L195 284Z"  horiz-adv-x="632" vert-adv-y="1000"  />

      
      <glyph glyph-name="uni0105" unicode="&#x0105;" d="M37 135Q37 310 343 310L373 310L373 324Q373 454 249 454Q172 454 106 406L75 458Q105 484 154 499.50Q203 515 253 515Q344 515 392.50 465.50Q441 416 441 322L441 0Q368-56 368-99Q368-119 383.50-131.50Q399-144 414-146L430-149L415-205Q411-205 403.50-204Q396-203 377-197Q358-191 343.50-182Q329-173 317-155Q305-137 305-113Q305-54 376 0L376 59L379 101L377 101Q356 53 310.50 20.50Q265-12 207-12Q138-12 87.50 27Q37 66 37 135M106 141Q106 103 136 74Q166 45 219 45Q288 45 330.50 103Q373 161 373 233L373 256L344 256Q312 256 288.50 255Q265 254 227.50 247.50Q190 241 166 230Q142 219 124 196Q106 173 106 141Z"  horiz-adv-x="517" vert-adv-y="1000"  />

      
      <glyph glyph-name="uni0106" unicode="&#x0106;" d="M369 752L438 871L517 871L430 752L369 752M55 356Q55 510 154.50 612.50Q254 715 408 715Q567 715 662 624L625 573Q584 609 526 629.50Q468 650 410 650Q284 650 205.50 566.50Q127 483 127 357Q127 229 206 141Q285 53 413 53Q545 53 640 146L680 97Q569-12 411-12Q253-12 154 93.50Q55 199 55 356Z"  horiz-adv-x="718" vert-adv-y="1000"  />

      
      <glyph glyph-name="uni0107" unicode="&#x0107;" d="M260 585L329 704L408 704L321 585L260 585M47 251Q47 366 123 440.50Q199 515 311 515Q363 515 413 496.50Q463 478 495 443L460 392Q433 420 393.50 437Q354 454 313 454Q229 454 173 397Q117 340 117 251Q117 163 173.50 106.50Q230 50 315 50Q359 50 403 68.50Q447 87 476 119L507 68Q474 31 421.50 9.50Q369-12 311-12Q198-12 122.50 61.50Q47 135 47 251Z"  horiz-adv-x="542" vert-adv-y="1000"  />

      
      <glyph glyph-name="uni0108" unicode="&#x0108;" d="M281 752L364 871L439 871L523 752L457 752L403 832L401 832L347 752L281 752M55 356Q55 510 154.50 612.50Q254 715 408 715Q567 715 662 624L625 573Q584 609 526 629.50Q468 650 410 650Q284 650 205.50 566.50Q127 483 127 357Q127 229 206 141Q285 53 413 53Q545 53 640 146L680 97Q569-12 411-12Q253-12 154 93.50Q55 199 55 356Z"  horiz-adv-x="718" vert-adv-y="1000"  />

      
      <glyph glyph-name="uni0109" unicode="&#x0109;" d="M171 585L254 704L329 704L413 585L347 585L293 665L291 665L237 585L171 585M47 251Q47 366 123 440.50Q199 515 311 515Q363 515 413 496.50Q463 478 495 443L460 392Q433 420 393.50 437Q354 454 313 454Q229 454 173 397Q117 340 117 251Q117 163 173.50 106.50Q230 50 315 50Q359 50 403 68.50Q447 87 476 119L507 68Q474 31 421.50 9.50Q369-12 311-12Q198-12 122.50 61.50Q47 135 47 251Z"  horiz-adv-x="542" vert-adv-y="1000"  />

      
      <glyph glyph-name="uni010A" unicode="&#x010A;" d="M55 356Q55 510 154.50 612.50Q254 715 408 715Q567 715 662 624L625 573Q584 609 526 629.50Q468 650 410 650Q284 650 205.50 566.50Q127 483 127 357Q127 229 206 141Q285 53 413 53Q545 53 640 146L680 97Q569-12 411-12Q253-12 154 93.50Q55 199 55 356M369 786L369 871L434 871L434 786L369 786Z"  horiz-adv-x="718" vert-adv-y="1000"  />

      
      <glyph glyph-name="uni010B" unicode="&#x010B;" d="M47 251Q47 366 123 440.50Q199 515 311 515Q363 515 413 496.50Q463 478 495 443L460 392Q433 420 393.50 437Q354 454 313 454Q229 454 173 397Q117 340 117 251Q117 163 173.50 106.50Q230 50 315 50Q359 50 403 68.50Q447 87 476 119L507 68Q474 31 421.50 9.50Q369-12 311-12Q198-12 122.50 61.50Q47 135 47 251M260 619L260 704L325 704L325 619L260 619Z"  horiz-adv-x="542" vert-adv-y="1000"  />

      
      <glyph glyph-name="uni010C" unicode="&#x010C;" d="M364 752L281 871L347 871L401 791L403 791L457 871L523 871L439 752L364 752M55 356Q55 510 154.50 612.50Q254 715 408 715Q567 715 662 624L625 573Q584 609 526 629.50Q468 650 410 650Q284 650 205.50 566.50Q127 483 127 357Q127 229 206 141Q285 53 413 53Q545 53 640 146L680 97Q569-12 411-12Q253-12 154 93.50Q55 199 55 356Z"  horiz-adv-x="718" vert-adv-y="1000"  />

      
      <glyph glyph-name="uni010D" unicode="&#x010D;" d="M254 585L171 704L237 704L291 624L293 624L347 704L413 704L329 585L254 585M47 251Q47 366 123 440.50Q199 515 311 515Q363 515 413 496.50Q463 478 495 443L460 392Q433 420 393.50 437Q354 454 313 454Q229 454 173 397Q117 340 117 251Q117 163 173.50 106.50Q230 50 315 50Q359 50 403 68.50Q447 87 476 119L507 68Q474 31 421.50 9.50Q369-12 311-12Q198-12 122.50 61.50Q47 135 47 251Z"  horiz-adv-x="542" vert-adv-y="1000"  />

      
      <glyph glyph-name="uni010E" unicode="&#x010E;" d="M303 752L220 871L286 871L340 791L342 791L396 871L462 871L378 752L303 752M101 0L101 703L327 703Q488 703 584 609.50Q680 516 680 352Q680 187 584 93.50Q488 0 327 0L101 0M170 62L320 62Q452 62 530 137.50Q608 213 608 352Q608 490 530 565.50Q452 641 320 641L170 641L170 62Z"  horiz-adv-x="738" vert-adv-y="1000"  />

      
      <glyph glyph-name="uni010F" unicode="&#x010F;" d="M570 702L635 702Q641 675 641 653Q641 614 618 563L562 563Q581 610 581 644Q581 672 570 702M108.50 61Q108.50 61 78.75 97.50Q49 134 49 252Q49 370 112 442.50Q175 515 276 515Q329 515 373.50 488.50Q418 462 441 416L443 416Q440 433 440 454L440 703L508 703L508 0L442 0L442 57L445 93L443 93Q420 47 375 17.50Q330-12 268-12Q168-12 108.50 61M119 252Q119 160 163.50 104.50Q208 49 279 49Q348 49 394.50 100Q441 151 441 253Q441 335 399.50 394Q358 453 282 453Q213 453 166 399Q119 345 119 252Z"  horiz-adv-x="593" vert-adv-y="1000"  />

      
      <glyph glyph-name="uni0110" unicode="&#x0110;" d="M107 0L107 323L47 323L47 383L107 383L107 703L333 703Q494 703 590 609.50Q686 516 686 352Q686 187 590 93.50Q494 0 333 0L107 0M176 62L326 62Q458 62 536 137.50Q614 213 614 352Q614 490 536 565.50Q458 641 326 641L176 641L176 383L343 383L343 323L176 323L176 62Z"  horiz-adv-x="744" vert-adv-y="1000"  />

      
      <glyph glyph-name="uni0111" unicode="&#x0111;" d="M108.50 61Q108.50 61 78.75 97.50Q49 134 49 252Q49 370 112 442.50Q175 515 276 515Q327 515 371.50 490Q416 465 439 420L441 420Q440 437 440 458L440 566L308 566L308 617L440 617L440 703L508 703L508 617L587 617L587 566L508 566L508 0L442 0L442 53L444 90L442 90Q421 46 375.50 17Q330-12 268-12Q168-12 108.50 61M119 252Q119 160 163.50 104.50Q208 49 279 49Q348 49 394.50 100Q441 151 441 253Q441 335 399.50 394.50Q358 454 282 454Q213 454 166 399.50Q119 345 119 252Z"  horiz-adv-x="589" vert-adv-y="1000"  />

      
      <glyph glyph-name="uni0112" unicode="&#x0112;" d="M101 0L101 703L496 703L496 641L170 641L170 385L437 385L437 323L170 323L170 62L515 62L515 0L101 0M187 785L187 840L433 840L433 785L187 785Z"  horiz-adv-x="560" vert-adv-y="1000"  />

      
      <glyph glyph-name="uni0113" unicode="&#x0113;" d="M47 251Q47 371 118.50 443Q190 515 296 515Q396 515 451 448.50Q506 382 506 283Q506 271 504 249L118 249Q120 156 176 103Q232 50 313 50Q400 50 466 110L497 58Q462 26 411.50 7Q361-12 311-12Q198-12 122.50 62Q47 136 47 251M121 303L437 303Q434 378 394 418.50Q354 459 294 459Q229 459 181 418Q133 377 121 303M173 618L173 673L419 673L419 618L173 618Z"  horiz-adv-x="553" vert-adv-y="1000"  />

      
      <glyph glyph-name="uni0114" unicode="&#x0114;" d="M101 0L101 703L496 703L496 641L170 641L170 385L437 385L437 323L170 323L170 62L515 62L515 0L101 0M310 749Q262 749 228 777Q194 805 194 856L194 871L249 871L249 857Q249 826 266 811Q283 796 310 796Q335 796 352.50 811.50Q370 827 370 858L370 871L425 871L425 856Q425 805 391 777Q357 749 310 749Z"  horiz-adv-x="560" vert-adv-y="1000"  />

      
      <glyph glyph-name="uni0115" unicode="&#x0115;" d="M47 251Q47 371 118.50 443Q190 515 296 515Q396 515 451 448.50Q506 382 506 283Q506 271 504 249L118 249Q120 156 176 103Q232 50 313 50Q400 50 466 110L497 58Q462 26 411.50 7Q361-12 311-12Q198-12 122.50 62Q47 136 47 251M121 303L437 303Q434 378 394 418.50Q354 459 294 459Q229 459 181 418Q133 377 121 303M296 582Q248 582 214 610Q180 638 180 689L180 704L235 704L235 690Q235 659 252 644Q269 629 296 629Q321 629 338.50 644.50Q356 660 356 691L356 704L411 704L411 689Q411 638 377 610Q343 582 296 582Z"  horiz-adv-x="553" vert-adv-y="1000"  />

      
      <glyph glyph-name="uni0116" unicode="&#x0116;" d="M101 0L101 703L496 703L496 641L170 641L170 385L437 385L437 323L170 323L170 62L515 62L515 0L101 0M277 786L277 871L342 871L342 786L277 786Z"  horiz-adv-x="560" vert-adv-y="1000"  />

      
      <glyph glyph-name="uni0117" unicode="&#x0117;" d="M47 251Q47 371 118.50 443Q190 515 296 515Q396 515 451 448.50Q506 382 506 283Q506 271 504 249L118 249Q120 156 176 103Q232 50 313 50Q400 50 466 110L497 58Q462 26 411.50 7Q361-12 311-12Q198-12 122.50 62Q47 136 47 251M121 303L437 303Q434 378 394 418.50Q354 459 294 459Q229 459 181 418Q133 377 121 303M263 619L263 704L328 704L328 619L263 619Z"  horiz-adv-x="553" vert-adv-y="1000"  />

      
      <glyph glyph-name="uni0118" unicode="&#x0118;" d="M101 0L101 703L496 703L496 641L170 641L170 385L437 385L437 323L170 323L170 62L515 62L515 0Q442-56 442-99Q442-119 457.50-131.50Q473-144 488-146L504-149L488-205Q484-205 476.50-204Q469-203 450-197Q431-191 417-182Q403-173 391-155Q379-137 379-113Q379-52 452 0L101 0Z"  horiz-adv-x="560" vert-adv-y="1000"  />

      
      <glyph glyph-name="uni0119" unicode="&#x0119;" d="M47 251Q47 371 118.50 443Q190 515 296 515Q396 515 451 448.50Q506 382 506 283L504 249L118 249Q120 156 176 103Q232 50 313 50Q396 50 466 110L497 59Q486 48 444 18.50Q402-11 377-39.50Q352-68 352-99Q352-119 367.50-131.50Q383-144 398-146L414-149L399-205Q395-205 387.50-204Q380-203 361-197Q342-191 327.50-182Q313-173 301-155Q289-137 289-113Q289-58 347-8Q325-12 311-12Q198-12 122.50 62Q47 136 47 251M121 303L437 303Q434 379 394 419Q354 459 294 459Q229 459 181 417.50Q133 376 121 303Z"  horiz-adv-x="553" vert-adv-y="1000"  />

      
      <glyph glyph-name="uni011A" unicode="&#x011A;" d="M272 752L189 871L255 871L309 791L311 791L365 871L431 871L347 752L272 752M101 0L101 703L496 703L496 641L170 641L170 385L437 385L437 323L170 323L170 62L515 62L515 0L101 0Z"  horiz-adv-x="560" vert-adv-y="1000"  />

      
      <glyph glyph-name="uni011B" unicode="&#x011B;" d="M258 585L175 704L241 704L295 624L297 624L351 704L417 704L333 585L258 585M47 251Q47 371 118.50 443Q190 515 296 515Q396 515 451 448.50Q506 382 506 283Q506 271 504 249L118 249Q120 156 176 103Q232 50 313 50Q400 50 466 110L497 58Q462 26 411.50 7Q361-12 311-12Q198-12 122.50 62Q47 136 47 251M121 303L437 303Q434 378 394 418.50Q354 459 294 459Q229 459 181 418Q133 377 121 303Z"  horiz-adv-x="553" vert-adv-y="1000"  />

      
      <glyph glyph-name="uni011C" unicode="&#x011C;" d="M277 752L360 871L435 871L519 752L453 752L399 832L397 832L343 752L277 752M55 352Q55 505 157 610Q259 715 410 715Q559 715 660 633L622 580Q585 611 527 630.50Q469 650 413 650Q287 650 207 565Q127 480 127 353Q127 223 206.50 138Q286 53 407 53Q469 53 527.50 80.50Q586 108 628 155L628 274L508 274L508 336L693 336L693 0L630 0L630 53L631 83L629 83Q590 40 529 14Q468-12 400-12Q254-12 154.50 92Q55 196 55 352Z"  horiz-adv-x="758" vert-adv-y="1000"  />

      
      <glyph glyph-name="uni011D" unicode="&#x011D;" d="M163 585L246 704L321 704L405 585L339 585L285 665L283 665L229 585L163 585M120-114Q186-148 257-148Q336-148 384-109.50Q432-71 432 9L432 59L436 96L434 96Q385 3 274 3Q173 3 111.50 75Q50 147 50 261Q50 375 109 445Q168 515 268 515Q322 515 367.50 493Q413 471 435 427L437 427Q435 433 435 444L435 503L501 503L501 12Q501-100 431.50-155Q362-210 259-210Q172-210 95-169L120-114M160.50 403Q160.50 403 139.75 377.50Q119 352 119 262Q119 172 164 118Q209 64 284 64Q351 64 392.50 110.50Q434 157 434 261Q434 454 275 454Q202 454 160.50 403Z"  horiz-adv-x="582" vert-adv-y="1000"  />

      
      <glyph glyph-name="uni011E" unicode="&#x011E;" d="M55 352Q55 505 157 610Q259 715 410 715Q559 715 660 633L622 580Q585 611 527 630.50Q469 650 413 650Q287 650 207 565Q127 480 127 353Q127 223 206.50 138Q286 53 407 53Q469 53 527.50 80.50Q586 108 628 155L628 274L508 274L508 336L693 336L693 0L630 0L630 53L631 83L629 83Q590 40 529 14Q468-12 400-12Q254-12 154.50 92Q55 196 55 352M399 749Q351 749 317 777Q283 805 283 856L283 871L338 871L338 857Q338 826 355 811Q372 796 399 796Q424 796 441.50 811.50Q459 827 459 858L459 871L514 871L514 856Q514 805 480 777Q446 749 399 749Z"  horiz-adv-x="758" vert-adv-y="1000"  />

      
      <glyph glyph-name="uni011F" unicode="&#x011F;" d="M120-114Q186-148 257-148Q336-148 384-109.50Q432-71 432 9L432 59L436 96L434 96Q385 3 274 3Q173 3 111.50 75Q50 147 50 261Q50 375 109 445Q168 515 268 515Q322 515 367.50 493Q413 471 435 427L437 427Q435 433 435 444L435 503L501 503L501 12Q501-100 431.50-155Q362-210 259-210Q172-210 95-169L120-114M160.50 403Q160.50 403 139.75 377.50Q119 352 119 262Q119 172 164 118Q209 64 284 64Q351 64 392.50 110.50Q434 157 434 261Q434 454 275 454Q202 454 160.50 403M284 582Q236 582 202 610Q168 638 168 689L168 704L223 704L223 690Q223 659 240 644Q257 629 284 629Q309 629 326.50 644.50Q344 660 344 691L344 704L399 704L399 689Q399 638 365 610Q331 582 284 582Z"  horiz-adv-x="582" vert-adv-y="1000"  />

      
      <glyph glyph-name="uni0120" unicode="&#x0120;" d="M55 352Q55 505 157 610Q259 715 410 715Q559 715 660 633L622 580Q585 611 527 630.50Q469 650 413 650Q287 650 207 565Q127 480 127 353Q127 223 206.50 138Q286 53 407 53Q469 53 527.50 80.50Q586 108 628 155L628 274L508 274L508 336L693 336L693 0L630 0L630 53L631 83L629 83Q590 40 529 14Q468-12 400-12Q254-12 154.50 92Q55 196 55 352M366 786L366 871L431 871L431 786L366 786Z"  horiz-adv-x="758" vert-adv-y="1000"  />

      
      <glyph glyph-name="uni0121" unicode="&#x0121;" d="M120-114Q186-148 257-148Q336-148 384-109.50Q432-71 432 9L432 59L436 96L434 96Q385 3 274 3Q173 3 111.50 75Q50 147 50 261Q50 375 109 445Q168 515 268 515Q322 515 367.50 493Q413 471 435 427L437 427Q435 433 435 444L435 503L501 503L501 12Q501-100 431.50-155Q362-210 259-210Q172-210 95-169L120-114M160.50 403Q160.50 403 139.75 377.50Q119 352 119 262Q119 172 164 118Q209 64 284 64Q351 64 392.50 110.50Q434 157 434 261Q434 454 275 454Q202 454 160.50 403M251 619L251 704L316 704L316 619L251 619Z"  horiz-adv-x="582" vert-adv-y="1000"  />

      
      <glyph glyph-name="uni0122" unicode="&#x0122;" d="M366-63L431-63Q437-90 437-112Q437-151 414-202L358-202Q377-154 377-121Q377-93 366-63M55 352Q55 505 157 610Q259 715 410 715Q559 715 660 633L622 580Q585 611 527 630.50Q469 650 413 650Q287 650 207 565Q127 480 127 353Q127 223 206.50 138Q286 53 407 53Q469 53 527.50 80.50Q586 108 628 155L628 274L508 274L508 336L693 336L693 0L630 0L630 53L631 83L629 83Q590 40 529 14Q468-12 400-12Q254-12 154.50 92Q55 196 55 352Z"  horiz-adv-x="758" vert-adv-y="1000"  />

      
      <glyph glyph-name="uni0123" unicode="&#x0123;" d="M318 565L253 565Q247 590 247 613Q247 652 270 703L326 703Q307 656 307 622Q307 594 318 565M120-114Q186-148 257-148Q336-148 384-109.50Q432-71 432 9L432 59L436 96L434 96Q385 3 274 3Q173 3 111.50 75Q50 147 50 261Q50 375 109 445Q168 515 268 515Q322 515 367.50 493Q413 471 435 427L437 427Q435 433 435 444L435 503L501 503L501 12Q501-100 431.50-155Q362-210 259-210Q172-210 95-169L120-114M160.50 403Q160.50 403 139.75 377.50Q119 352 119 262Q119 172 164 118Q209 64 284 64Q351 64 392.50 110.50Q434 157 434 261Q434 454 275 454Q202 454 160.50 403Z"  horiz-adv-x="582" vert-adv-y="1000"  />

      
      <glyph glyph-name="uni0124" unicode="&#x0124;" d="M252 752L335 871L410 871L494 752L428 752L374 832L372 832L318 752L252 752M101 0L101 703L170 703L170 383L577 383L577 703L647 703L647 0L577 0L577 321L170 321L170 0L101 0Z"  horiz-adv-x="747" vert-adv-y="1000"  />

      
      <glyph glyph-name="uni0125" unicode="&#x0125;" d="M-4 752L79 871L154 871L238 752L172 752L118 832L116 832L62 752L-4 752M81 0L81 703L149 703L149 427L146 386L148 386Q166 432 219.50 473.50Q273 515 349 515Q440 515 479 466Q518 417 518 320L518 0L450 0L450 302Q450 373 428 412Q406 451 340 451Q260 451 204.50 392Q149 333 149 243L149 0L81 0Z"  horiz-adv-x="594" vert-adv-y="1000"  />

      
      <glyph glyph-name="uni0126" unicode="&#x0126;" d="M107 0L107 512L42 512L42 565L107 565L107 703L177 703L177 565L581 565L581 703L651 703L651 565L716 565L716 512L651 512L651 0L581 0L581 321L177 321L177 0L107 0M177 383L581 383L581 512L177 512L177 383Z"  horiz-adv-x="758" vert-adv-y="1000"  />

      
      <glyph glyph-name="uni0127" unicode="&#x0127;" d="M81 0L81 566L5 566L5 617L81 617L81 703L149 703L149 617L283 617L283 566L149 566L149 431L147 390L149 390Q168 435 220.50 475Q273 515 349 515Q440 515 479 466Q518 417 518 320L518 0L450 0L450 302Q450 373 428 412Q406 451 340 451Q258 451 203.50 391Q149 331 149 246L149 0L81 0Z"  horiz-adv-x="594" vert-adv-y="1000"  />

      
      <glyph glyph-name="uni0128" unicode="&#x0128;" d="M101 0L101 703L170 703L170 0L101 0M-19 755Q-19 871 73 871Q102 871 123.50 853.50Q145 836 163 818Q181 800 199 800Q221 800 230 821.50Q239 843 239 868L293 868Q293 752 201 752Q172 752 150.50 770Q129 788 111 805.50Q93 823 75 823Q36 823 36 755L-19 755Z"  horiz-adv-x="271" vert-adv-y="1000"  />

      
      <glyph glyph-name="uni0129" unicode="&#x0129;" d="M81 0L81 503L149 503L149 0L81 0M-39 588Q-39 704 53 704Q82 704 103.50 686Q125 668 143 650.50Q161 633 179 633Q201 633 210 654.50Q219 676 219 701L273 701Q273 585 181 585Q152 585 130.50 602.50Q109 620 91 638Q73 656 55 656Q16 656 16 588L-39 588Z"  horiz-adv-x="230" vert-adv-y="1000"  />

      
      <glyph glyph-name="uni012A" unicode="&#x012A;" d="M101 0L101 703L170 703L170 0L101 0M14 785L14 840L260 840L260 785L14 785Z"  horiz-adv-x="271" vert-adv-y="1000"  />

      
      <glyph glyph-name="uni012B" unicode="&#x012B;" d="M81 0L81 503L149 503L149 0L81 0M-7 618L-7 673L239 673L239 618L-7 618Z"  horiz-adv-x="230" vert-adv-y="1000"  />

      
      <glyph glyph-name="uni012C" unicode="&#x012C;" d="M101 0L101 703L170 703L170 0L101 0M137 749Q89 749 55 777Q21 805 21 856L21 871L76 871L76 857Q76 826 93 811Q110 796 137 796Q162 796 179.50 811.50Q197 827 197 858L197 871L252 871L252 856Q252 805 218 777Q184 749 137 749Z"  horiz-adv-x="271" vert-adv-y="1000"  />

      
      <glyph glyph-name="uni012D" unicode="&#x012D;" d="M81 0L81 503L149 503L149 0L81 0M117 582Q69 582 35 610Q1 638 1 689L1 704L56 704L56 690Q56 659 73 644Q90 629 117 629Q142 629 159.50 644.50Q177 660 177 691L177 704L232 704L232 689Q232 638 198 610Q164 582 117 582Z"  horiz-adv-x="230" vert-adv-y="1000"  />

      
      <glyph glyph-name="uni012E" unicode="&#x012E;" d="M101 0L101 703L170 703L170 0Q97-56 97-99Q97-119 112.50-131.50Q128-144 144-146L159-149L144-205Q140-205 132.50-204Q125-203 106-197Q87-191 72.50-182Q58-173 46-155Q34-137 34-113Q34-54 104 0L101 0Z"  horiz-adv-x="271" vert-adv-y="1000"  />

      
      <glyph glyph-name="uni012F" unicode="&#x012F;" d="M81 0L81 503L149 503L149 1L150 0Q77-56 77-99Q77-119 92.50-131.50Q108-144 124-146L139-149L124-205Q120-205 112.50-204Q105-203 86-197Q67-191 52.50-182Q38-173 26-154.50Q14-136 14-112Q14-53 86 0L81 0M78 618L78 703L152 703L152 618L78 618Z"  horiz-adv-x="231" vert-adv-y="1000"  />

      
      <glyph glyph-name="uni0130" unicode="&#x0130;" d="M101 0L101 703L170 703L170 0L101 0M104 786L104 871L169 871L169 786L104 786Z"  horiz-adv-x="271" vert-adv-y="1000"  />

      
      <glyph glyph-name="uni0131" unicode="&#x0131;" d="M81 0L81 503L149 503L149 0L81 0Z"  horiz-adv-x="230" vert-adv-y="1000"  />

      
      <glyph glyph-name="uni0132" unicode="&#x0132;" d="M271-5L271 60Q417 60 417 228L417 703L487 703L487 228Q487-5 271-5M101 0L101 703L170 703L170 0L101 0Z"  horiz-adv-x="581" vert-adv-y="1000"  />

      
      <glyph glyph-name="uni0133" unicode="&#x0133;" d="M78 618L78 703L152 703L152 618L78 618M81 0L81 503L149 503L149 0L81 0M308 618L308 703L382 703L382 618L308 618M311-16L311 503L379 503L379-18Q379-77 360.50-117.50Q342-158 312-175.50Q282-193 256.50-199.50Q231-206 204-206Q190-206 175-203L175-143Q183-145 197-145Q215-145 231.50-140.50Q248-136 267.50-124Q287-112 299-84Q311-56 311-16Z"  horiz-adv-x="461" vert-adv-y="1000"  />

      
      <glyph glyph-name="uni0134" unicode="&#x0134;" d="M184 752L267 871L342 871L426 752L360 752L306 832L304 832L250 752L184 752M32 197L32 225L101 225L101 199Q101 136 133 94.50Q165 53 228 53Q283 53 320 88Q357 123 357 197L357 641L185 641L185 703L426 703L426 197Q426 91 368.50 39.50Q311-12 229-12Q147-12 89.50 40Q32 92 32 197Z"  horiz-adv-x="520" vert-adv-y="1000"  />

      
      <glyph glyph-name="uni0135" unicode="&#x0135;" d="M-8 584L76 703L148 703L232 584L167 584L113 665L111 665L57 584L-8 584M81-16L81 503L149 503L149-18Q149-77 130.50-117.50Q112-158 82-175.50Q52-193 26.50-199.50Q1-206-26-206Q-40-206-55-203L-55-143Q-43-145-33-145Q-15-145 1.50-140.50Q18-136 37.50-124Q57-112 69-84Q81-56 81-16Z"  horiz-adv-x="230" vert-adv-y="1000"  />

      
      <glyph glyph-name="uni0136" unicode="&#x0136;" d="M275-63L340-63Q346-90 346-112Q346-151 323-202L267-202Q286-154 286-121Q286-93 275-63M101 0L101 703L170 703L170 398L288 398L478 703L557 703L346 371L346 369L571 0L490 0L288 336L170 336L170 0L101 0Z"  horiz-adv-x="591" vert-adv-y="1000"  />

      
      <glyph glyph-name="uni0137" unicode="&#x0137;" d="M226-63L291-63Q297-90 297-112Q297-151 274-202L218-202Q237-154 237-121Q237-93 226-63M81 0L81 703L149 703L149 311L230 311L380 503L462 503L287 284L287 282L480 0L398 0L231 251L149 251L149 0L81 0Z"  horiz-adv-x="496" vert-adv-y="1000"  />

      
      <glyph glyph-name="uni0138" unicode="&#x0138;" d="M81 0L81 503L149 503L149 297L228 297L387 503L470 503L287 270L287 268L471 0L387 0L229 238L149 238L149 0L81 0Z"  horiz-adv-x="494" vert-adv-y="1000"  />

      
      <glyph glyph-name="uni0139" unicode="&#x0139;" d="M104 752L173 871L252 871L165 752L104 752M101 0L101 703L170 703L170 62L496 62L496 0L101 0Z"  horiz-adv-x="517" vert-adv-y="1000"  />

      
      <glyph glyph-name="uni013A" unicode="&#x013A;" d="M85 752L154 871L233 871L146 752L85 752M81 119L81 703L149 703L149 134Q149 58 206 58Q216 58 222 59L222-2Q210-4 197-4Q182-4 169-2Q156 0 139 7.50Q122 15 110 28Q98 41 89.50 64.50Q81 88 81 119Z"  horiz-adv-x="246" vert-adv-y="1000"  />

      
      <glyph glyph-name="uni013B" unicode="&#x013B;" d="M271-63L336-63Q342-90 342-112Q342-151 319-202L263-202Q282-154 282-121Q282-93 271-63M101 0L101 703L170 703L170 62L496 62L496 0L101 0Z"  horiz-adv-x="517" vert-adv-y="1000"  />

      
      <glyph glyph-name="uni013C" unicode="&#x013C;" d="M116-63L181-63Q187-90 187-112Q187-151 164-202L108-202Q127-154 127-121Q127-93 116-63M81 119L81 703L149 703L149 134Q149 58 206 58Q216 58 222 59L222-2Q210-4 197-4Q182-4 169-2Q156 0 139 7.50Q122 15 110 28Q98 41 89.50 64.50Q81 88 81 119Z"  horiz-adv-x="246" vert-adv-y="1000"  />

      
      <glyph glyph-name="uni013D" unicode="&#x013D;" d="M261 702L326 702Q332 675 332 653Q332 614 309 563L253 563Q272 610 272 644Q272 672 261 702M101 0L101 703L170 703L170 62L496 62L496 0L101 0Z"  horiz-adv-x="517" vert-adv-y="1000"  />

      
      <glyph glyph-name="uni013E" unicode="&#x013E;" d="M213 702L278 702Q284 675 284 653Q284 614 261 563L205 563Q224 610 224 644Q224 672 213 702M81 119L81 703L149 703L149 134Q149 58 206 58Q216 58 222 59L222-2Q210-4 197-4Q182-4 169-2Q156 0 139 7.50Q122 15 110 28Q98 41 89.50 64.50Q81 88 81 119Z"  horiz-adv-x="250" vert-adv-y="1000"  />

      
      <glyph glyph-name="uni013F" unicode="&#x013F;" d="M101 0L101 703L170 703L170 62L496 62L496 0L101 0M294 330L294 413L374 413L374 330L294 330Z"  horiz-adv-x="517" vert-adv-y="1000"  />

      
      <glyph glyph-name="uni0140" unicode="&#x0140;" d="M81 119L81 703L149 703L149 134Q149 58 206 58Q216 58 222 59L222-2Q210-4 197-4Q182-4 169-2Q156 0 139 7.50Q122 15 110 28Q98 41 89.50 64.50Q81 88 81 119M217 330L217 413L297 413L297 330L217 330Z"  horiz-adv-x="285" vert-adv-y="1000"  />

      
      <glyph glyph-name="uni0141" unicode="&#x0141;" d="M106 0L106 337L44 302L44 372L106 408L106 703L175 703L175 448L288 513L288 442L175 377L175 62L501 62L501 0L106 0Z"  horiz-adv-x="522" vert-adv-y="1000"  />

      
      <glyph glyph-name="uni0142" unicode="&#x0142;" d="M16 306L16 376L97 423L97 703L165 703L165 462L252 513L252 442L165 391L165 134Q165 58 222 58L238 59L238-2Q226-4 213-4Q97-4 97 119L97 352L16 306Z"  horiz-adv-x="268" vert-adv-y="1000"  />

      
      <glyph glyph-name="uni0143" unicode="&#x0143;" d="M342 752L411 871L490 871L403 752L342 752M101 0L101 703L168 703L527 197L585 102L587 102Q581 160 581 197L581 703L650 703L650 0L583 0L224 506L166 601L164 601Q170 543 170 506L170 0L101 0Z"  horiz-adv-x="751" vert-adv-y="1000"  />

      
      <glyph glyph-name="uni0144" unicode="&#x0144;" d="M276 585L345 704L424 704L337 585L276 585M81 0L81 503L148 503L148 424L144 384L146 384Q165 430 217.50 472.50Q270 515 349 515Q440 515 479 466Q518 417 518 320L518 0L450 0L450 302Q450 373 428 412Q406 451 340 451Q259 451 204 392Q149 333 149 246L149 0L81 0Z"  horiz-adv-x="594" vert-adv-y="1000"  />

      
      <glyph glyph-name="uni0145" unicode="&#x0145;" d="M341-63L406-63Q412-90 412-112Q412-151 389-202L333-202Q352-154 352-121Q352-93 341-63M101 0L101 703L168 703L527 197L585 102L587 102Q581 160 581 197L581 703L650 703L650 0L583 0L224 506L166 601L164 601Q170 543 170 506L170 0L101 0Z"  horiz-adv-x="751" vert-adv-y="1000"  />

      
      <glyph glyph-name="uni0146" unicode="&#x0146;" d="M265-63L330-63Q336-90 336-112Q336-151 313-202L257-202Q276-154 276-121Q276-93 265-63M81 0L81 503L148 503L148 424L144 384L146 384Q165 430 217.50 472.50Q270 515 349 515Q440 515 479 466Q518 417 518 320L518 0L450 0L450 302Q450 373 428 412Q406 451 340 451Q259 451 204 392Q149 333 149 246L149 0L81 0Z"  horiz-adv-x="594" vert-adv-y="1000"  />

      
      <glyph glyph-name="uni0147" unicode="&#x0147;" d="M337 752L254 871L320 871L374 791L376 791L430 871L496 871L412 752L337 752M101 0L101 703L168 703L527 197L585 102L587 102Q581 160 581 197L581 703L650 703L650 0L583 0L224 506L166 601L164 601Q170 543 170 506L170 0L101 0Z"  horiz-adv-x="751" vert-adv-y="1000"  />

      
      <glyph glyph-name="uni0148" unicode="&#x0148;" d="M271 585L188 704L254 704L308 624L310 624L364 704L430 704L346 585L271 585M81 0L81 503L148 503L148 424L144 384L146 384Q165 430 217.50 472.50Q270 515 349 515Q440 515 479 466Q518 417 518 320L518 0L450 0L450 302Q450 373 428 412Q406 451 340 451Q259 451 204 392Q149 333 149 246L149 0L81 0Z"  horiz-adv-x="594" vert-adv-y="1000"  />

      
      <glyph glyph-name="uni0149" unicode="&#x0149;" d="M19 702L84 702Q90 675 90 653Q90 614 67 563L11 563Q30 610 30 644Q30 672 19 702M81 0L81 503L148 503L148 424L144 384L146 384Q165 430 217.50 472.50Q270 515 349 515Q440 515 479 466Q518 417 518 320L518 0L450 0L450 302Q450 373 428 412Q406 451 340 451Q259 451 204 392Q149 333 149 246L149 0L81 0Z"  horiz-adv-x="594" vert-adv-y="1000"  />

      
      <glyph glyph-name="uni014A" unicode="&#x014A;" d="M101 0L101 703L168 703L527 197L585 102L587 102Q581 160 581 197L581 703L650 703L650 12Q650-102 589-153.50Q528-205 442-205L442-140Q496-140 537-105Q578-70 579 5L224 506L166 601L164 601Q170 543 170 506L170 0L101 0Z"  horiz-adv-x="751" vert-adv-y="1000"  />

      
      <glyph glyph-name="uni014B" unicode="&#x014B;" d="M81 0L81 503L148 503L148 423L146 388L148 388Q167 434 218.50 474.50Q270 515 349 515Q440 515 479 466Q518 417 518 320L518-23Q518-82 499.50-122Q481-162 450.50-179.50Q420-197 394.50-203.50Q369-210 342-210L313-207L313-148Q322-149 335-149Q353-149 370-144.50Q387-140 406.50-128Q426-116 438-88Q450-60 450-20L450 302Q450 373 428 412Q406 451 340 451Q257 451 203 391Q149 331 149 246L149 0L81 0Z"  horiz-adv-x="594" vert-adv-y="1000"  />

      
      <glyph glyph-name="uni014C" unicode="&#x014C;" d="M289 785L289 840L535 840L535 785L289 785M54 357Q54 508 156.50 611.50Q259 715 412 715Q566 715 668 612Q770 509 770 357Q770 201 668 94.50Q566-12 412-12Q259-12 156.50 94.50Q54 201 54 357M126 357Q126 228 207.50 140.50Q289 53 412 53Q535 53 616.50 140Q698 227 698 357Q698 482 616.50 566Q535 650 412 650Q289 650 207.50 566Q126 482 126 357Z"  horiz-adv-x="825" vert-adv-y="1000"  />

      
      <glyph glyph-name="uni014D" unicode="&#x014D;" d="M189 618L189 673L435 673L435 618L189 618M47 254Q47 365 124 440Q201 515 312 515Q423 515 500.50 440Q578 365 578 254Q578 141 500.50 64.50Q423-12 312-12Q201-12 124 64.50Q47 141 47 254M117 254Q117 166 173.50 108Q230 50 312 50Q394 50 451 108Q508 166 508 254Q508 339 451 396.50Q394 454 312 454Q230 454 173.50 396.50Q117 339 117 254Z"  horiz-adv-x="624" vert-adv-y="1000"  />

      
      <glyph glyph-name="uni014E" unicode="&#x014E;" d="M54 357Q54 508 156.50 611.50Q259 715 412 715Q566 715 668 612Q770 509 770 357Q770 201 668 94.50Q566-12 412-12Q259-12 156.50 94.50Q54 201 54 357M126 357Q126 228 207.50 140.50Q289 53 412 53Q535 53 616.50 140Q698 227 698 357Q698 482 616.50 566Q535 650 412 650Q289 650 207.50 566Q126 482 126 357M412 749Q364 749 330 777Q296 805 296 856L296 871L351 871L351 857Q351 826 368 811Q385 796 412 796Q437 796 454.50 811.50Q472 827 472 858L472 871L527 871L527 856Q527 805 493 777Q459 749 412 749Z"  horiz-adv-x="825" vert-adv-y="1000"  />

      
      <glyph glyph-name="uni014F" unicode="&#x014F;" d="M47 254Q47 365 124 440Q201 515 312 515Q423 515 500.50 440Q578 365 578 254Q578 141 500.50 64.50Q423-12 312-12Q201-12 124 64.50Q47 141 47 254M117 254Q117 166 173.50 108Q230 50 312 50Q394 50 451 108Q508 166 508 254Q508 339 451 396.50Q394 454 312 454Q230 454 173.50 396.50Q117 339 117 254M312 582Q264 582 230 610Q196 638 196 689L196 704L251 704L251 690Q251 659 268 644Q285 629 312 629Q337 629 354.50 644.50Q372 660 372 691L372 704L427 704L427 689Q427 638 393 610Q359 582 312 582Z"  horiz-adv-x="624" vert-adv-y="1000"  />

      
      <glyph glyph-name="uni0150" unicode="&#x0150;" d="M433 752L503 871L580 871L493 752L433 752M299 752L364 871L432 871L364 752L299 752M54 357Q54 508 156.50 611.50Q259 715 412 715Q566 715 668 612Q770 509 770 357Q770 201 668 94.50Q566-12 412-12Q259-12 156.50 94.50Q54 201 54 357M126 357Q126 228 207.50 140.50Q289 53 412 53Q535 53 616.50 140Q698 227 698 357Q698 482 616.50 566Q535 650 412 650Q289 650 207.50 566Q126 482 126 357Z"  horiz-adv-x="825" vert-adv-y="1000"  />

      
      </font>
</defs>
</svg>
