<svg height="30" viewBox="0 0 30 30" width="30" xmlns="http://www.w3.org/2000/svg"><path d="m15 3c-6.628906 0-12 5.371094-12 12 0 6.015625 4.433594 10.984375 10.207031 11.851562v-8.671874h-2.96875v-3.152344h2.96875v-2.101563c0-3.472656 1.691407-5 4.578125-5 1.386719 0 2.117188.105469 2.460938.148438v2.753906h-1.96875c-1.226563 0-1.652344 1.164063-1.652344 2.472656v1.726563h3.59375l-.488281 3.152344h-3.105469v8.699218c5.855469-.796875 10.375-5.804687 10.375-11.878906 0-6.628906-5.371094-12-12-12zm0 0" fill="#fff"/></svg>