<svg height="75" viewBox="0 0 75 75" width="75" xmlns="http://www.w3.org/2000/svg"><path d="m16.949219 3c-7.703125 0-13.949219 6.246094-13.949219 13.949219v41.25c0 7.707031 6.246094 13.949219 13.949219 13.949219h41.25c7.707031 0 13.949219-6.242188 13.949219-13.949219v-41.285157c-.167969-7.683593-6.375-13.914062-13.949219-13.914062zm0 3h41.25c5.929687 0 10.816406 4.871094 10.949219 10.984375v41.21875c0 6.09375-4.851563 10.945313-10.949219 10.945313h-8.699219v-25.648438h7.273438l1.996093-12h-9.269531v-3c0-.824219.082031-.890625.378906-1.082031.292969-.1875 1.164063-.417969 2.621094-.417969h6v-10.09375l-1.039062-.332031s-4.765626-1.574219-9.460938-1.574219c-4.355469 0-7.5625 1.429688-9.480469 3.949219s-2.519531 5.855469-2.519531 9.550781v3h-4.5v12h4.5v25.648438h-19.050781c-6.09375 0-10.949219-4.851563-10.949219-10.949219v-41.25c0-6.09375 4.855469-10.949219 10.949219-10.949219zm31.050781 12c3.253906 0 6.261719.804688 7.5 1.160156v4.839844h-3c-1.695312 0-3.074219.144531-4.242188.894531-1.167968.746094-1.757812 2.179688-1.757812 3.605469v6h8.730469l-1 6h-7.730469v28.648438h-7.5v-28.648438h-4.5v-6h4.5v-6c0-3.355469.597656-6.015625 1.90625-7.734375s3.347656-2.765625 7.09375-2.765625zm0 0" fill="#fff"/></svg>