<svg enable-background="new 0 0 611.997 611.998" height="611.998" viewBox="0 0 611.997 611.998" width="611.997" xmlns="http://www.w3.org/2000/svg"><path d="m511.114 300.251c-9.94 0-17.638 7.663-17.638 17.651v241.105h-125.075v-98.453c0-9.236-7.697-17.31-17.002-17.31h-90.435c-9.948 0-17.96 8.073-17.96 17.31v98.453h-124.76v-233.1c0-9.306-7.69-17.036-17.638-17.036-9.298 0-16.995 7.73-16.995 17.036v250.752c0 9.305 7.697 17.036 16.995 17.036h160.358c9.298 0 16.995-7.731 16.995-17.036v-98.454h55.801v98.454c0 9.305 7.697 17.036 17.639 17.036h159.715c9.299 0 16.995-7.731 16.995-17.036v-258.756c0-9.988-7.696-17.652-16.995-17.652z"/><path d="m607.003 314.003-139.184-139.778v-95.306c0-9.921-8.019-17.583-17.96-17.583-9.305 0-17.001 7.663-17.001 17.583v60.345l-114.812-115.49c-3.518-3.558-7.697-5.474-11.864-5.474-4.81 0-8.983 1.984-12.507 5.474l-288.314 288.313c-6.917 6.91-7.375 17.994 0 24.357 6.411 7.389 17.454 6.91 24.371 0l276.45-275.793 275.807 278.393c2.873 2.874 7.054 4.516 12.507 4.516 4.81 0 8.976-1.642 12.507-4.516 6.417-6.431 6.896-18.062 0-25.041z"/></svg>