<svg height="150" viewBox="0 0 150 150" width="150" xmlns="http://www.w3.org/2000/svg"><path d="m48 9c-21.4375 0-39 17.5625-39 39v54c0 21.4375 17.5625 39 39 39h54c21.4375 0 39-17.5625 39-39v-54c0-21.4375-17.5625-39-39-39zm0 6h54c18.164062 0 33 14.835938 33 33v54c0 18.164062-14.835938 33-33 33h-54c-18.164062 0-33-14.835938-33-33v-54c0-18.164062 14.835938-33 33-33zm63 18c-3.300781 0-6 2.699219-6 6s2.699219 6 6 6 6-2.699219 6-6-2.699219-6-6-6zm-36 9c-18.136719 0-33 14.863281-33 33s14.863281 33 33 33 33-14.863281 33-33-14.863281-33-33-33zm0 6c14.863281 0 27 12.136719 27 27s-12.136719 27-27 27-27-12.136719-27-27 12.136719-27 27-27zm0 0" fill="#fff"/></svg>