<svg height="30" viewBox="0 0 30 30" width="30" xmlns="http://www.w3.org/2000/svg"><path d="m9.996094 3c-3.855469 0-6.996094 3.140625-6.996094 7v10c0 3.859375 3.140625 7 7 7h10c3.859375 0 7-3.140625 7-7.003906v-10c0-3.855469-3.140625-6.996094-7.003906-6.996094zm12.003906 4c.550781 0 1 .449219 1 1s-.449219 1-1 1-1-.449219-1-1 .449219-1 1-1zm-7 2c3.308594 0 6 2.691406 6 6s-2.691406 6-6 6-6-2.691406-6-6 2.691406-6 6-6zm0 2c-2.210938 0-4 1.789062-4 4s1.789062 4 4 4 4-1.789062 4-4-1.789062-4-4-4zm0 0" fill="#fff"/></svg>