<svg width="160" height="160" fill="none" xmlns="http://www.w3.org/2000/svg"><path d="M159.954 80.001c0 5.765-.615 11.405-1.787 16.829a65.917 65.917 0 0 1-.888 3.764c-6.896 25.957-26.51 46.732-51.758 55.233a80.265 80.265 0 0 1-3.234 1.016 80.236 80.236 0 0 1-22.304 3.15c-21.328 0-40.716-8.357-55.048-21.952a91.66 91.66 0 0 1-2.832-2.832 80.012 80.012 0 0 1-12.086-16.44 79.293 79.293 0 0 1-2.105-4.034C2.848 104.227 0 92.451 0 80.001 0 35.816 35.808 0 79.983 0c44.163 0 79.971 35.816 79.971 80.001Z" fill="#fff"/><path d="M51.407 70.42c1.292.94 4.622 1.248 6.398-.242a1.525 1.525 0 0 1 1.05-.395c.066 0 .154 0 .242.022.46.066.874.33 1.116.724 1.643 2.453 4.096 4.865 9.904 4.207 2.628-.308 4.623-1.073 6.31-2.127-1.732.176-3.375.11-4.733.022-4.82-.33-9.355-2.65-12.114-6.223-.066-.044-.088-.088-.132-.132v-.022c-.044-.022-.088-.022-.11-.066-.066.066-.088.11-.154.176-1.753 1.687-4.14 2.694-6.595 2.716-.878-.022-1.687-.088-2.496-.307.351.68.79 1.251 1.314 1.647Z" fill="#6A4A42"/><path d="M87.009 43.926a19.53 19.53 0 0 0-.088 1.6c.022 2.914 1.073 5.982 3.287 9.664.809 1.337 1.687 2.651 2.562 3.944a93.244 93.244 0 0 1 2.145 3.265 12.645 12.645 0 0 1 4.008-3.441c2.434-1.007 3.857-.461 4.645.154 1.994 1.577 1.665 4.799 1.577 5.432-.11.462-.768 2.959-2.06 4.734-2.606 3.66-4.755 4.404-5.347 4.558h-.11c-.022 0-.022.022-.044.022-.088 0-.176.022-.264.022-.787 0-1.49-.571-1.62-1.38-.22-1.249-.638-2.563-1.227-3.944-3.44 3.661-8.894 5.982-12.902 5.982-.659 0-1.27-.066-1.84-.197v.022c-2.322 1.71-5.194 3.177-9.246 3.638-.787.088-1.534.132-2.236.132-5.147 0-8.02-2.258-9.813-4.492-2.913 1.38-6.815.985-8.96-.549-.615-.439-1.116-.985-1.556-1.6-.11.242-.219.44-.307.66-1.16 2.913-2.236 7.208-.834 11.11 1.885 5.238 6.77 9.4 13.08 11.132 6.944 1.907 13.803.352 18.316-1.292 1.709-.637 3.177-1.292 4.469-2.039 5.149-2.892 9.508-7.845 13.736-15.58.35-.66 1.138-.985 1.885-.788.021 0 1.533.352 3.198-.897 1.929-1.446 4.338-5.216 4.799-14.856.065-2.606.461-4.514 1.16-5.784-3.566-2.045-11.867-6.406-20.413-9.232Z" fill="#6A4A42"/><path d="M72.66 49.008c.461-.395 1.336-.44 2.628-.176.94.198 1.973 1.095 2.126 1.402a1.661 1.661 0 0 0 1.534 1.03c.197 0 .417-.045.615-.11a1.673 1.673 0 0 0 .918-2.15c-.526-1.27-2.518-3.001-4.534-3.396-2.324-.483-4.074-.22-5.37.83-.702.594-.808 1.623-.219 2.322a1.63 1.63 0 0 0 2.302.248ZM71.475 56.33c0 .153-.022.307-.022.46.044.572.153 1.403.721 2.128.549.68 1.336 1.05 2.126 1.05.154 0 .308-.022.461-.044.461.023.966-.131 1.424-.439 1.095-.765 1.841-2.43 1.753-3.855v-.066c-.022-.11-.066-.22-.11-.351a1.237 1.237 0 0 0-.087-.264c-.022-.021-.022-.043-.022-.065-.22-.352-.505-.769-.875-1.205-.132-.154-.264-.307-.44-.417-.175-.198-.329-.395-.548-.549-1.029-.765-2.255-1.073-3.396-.853-1.446.263-2.409 1.314-3.068 1.995-.614.659-.592 1.71.066 2.321.571.527 1.383.568 2.017.154Z" fill="#2C2C2D"/><path d="M157.115 96.126c-5.98-4.323-17.067-11.735-32.976-22.02l-.329-.23a8.507 8.507 0 0 0-3.877-1.317c-1.659-.1-5.579-.474-9.772-.844l-3.061-.285c1.374-3.09 2.189-7.212 2.431-12.378.085-3.077.615-4.122.831-4.436h.028l21.043 1.202c.029.028.073.028.101.028.759 0 1.417-.53 1.59-1.274.558-2.39.273-7.67-4.836-10.69-3.462-2.089-8.483-2.675-15.693-1.86-5.322-15.612-17.54-20.348-26.968-21.522-10.684-1.43-16.953 1.616-20.73 4.034-4.678 2.949-7.554 8.413-9.743 13.335-.502 1.101-.916 2.262-1.289 3.447-.185.587 0 1.202.43 1.631.2.201.414.33.686.402-.442 5.408-2.004 10.875-4.663 16.283a151.383 151.383 0 0 1-2.133 3.965c-.072.116-.128.245-.2.358a1.612 1.612 0 0 0-1.816-.029c-.63.402-.9 1.158-.671 1.889l.185.586c.116.402.245.788.401 1.202a40.856 40.856 0 0 0-1.53 3.334c-1.245 3.178-2.374 7.754-1.201 12.25-5.093 3.993-10.259 7.797-13.99 10.345-6.825 4.692-14.806 11.675-18.554 16.283a19.487 19.487 0 0 0-2.904 4.909 73.415 73.415 0 0 0 2.105 4.034 21.27 21.27 0 0 1 .586-1.904c.1-.301.229-.603.345-.901a17.1 17.1 0 0 1 .86-1.731c.156-.286.313-.558.485-.816a15.548 15.548 0 0 1 1.101-1.53c3.5-4.317 11.34-11.171 17.85-15.622 2.234-1.53 4.994-3.535 7.954-5.737-4.12 7.183-7.981 14.652-11.13 23.109-1.844-1.703-4.165-2.776-6.382-2.848-.86.028-1.659.702-1.687 1.631a1.65 1.65 0 0 0 1.602 1.659c1.816.044 3.848 1.274 5.206 3.021a89.19 89.19 0 0 0-.8 2.447c-.272.815-.53 1.647-.77 2.49a98.124 98.124 0 0 0-.716 2.491c-.157.602-.33 1.201-.473 1.816a38.001 38.001 0 0 0-.43 1.716c-.2.772-.37 1.546-.543 2.334-.185.787-.341 1.574-.501 2.374-.173.8-.33 1.616-.474 2.447a86.55 86.55 0 0 0 2.832 2.833c.113-.731.245-1.459.37-2.174.144-.8.301-1.587.474-2.362a121.158 121.158 0 0 1 4.39-16.054c.044-.085.057-.157.085-.245 3.976-11.289 9.198-20.82 14.733-30.063 2.76 4.909 7.812 8.714 14.034 10.43 2.563.702 5.122.988 7.555.988 4.92 0 9.4-1.158 12.733-2.39 1.875-.688 3.506-1.403 4.964-2.234 5.109-2.876 9.443-7.497 13.548-14.379a45.26 45.26 0 0 1 5.78 3.177c-4.535 1.274-8.812 4.25-11.76 8.4-3.82 5.324-5.708 12.463-5.48 20.72.214 3.089 1.447 6.753 1.974 8.227-1.647.832-3.707 1.346-6.053 1.503-1.948.285-4.193.172-6.552.044-2.301-.129-4.663-.257-6.852.044H68.755s-.028.028-.044.028c-1.816.172-3.619 1.129-5.35 2.82-2.474-1.788-4.463-4.837-4.836-7.484-.273-1.804-.157-3.335-.084-4.565.084-1.574.172-2.691-.643-3.547-.258-.286-.628-.458-1.029-.543v-.028c-1.615-.631-3.262-.53-4.62.373-1.931 1.274-2.819 3.749-2.86 5.653-.044 1.844.414 3.921.872 5.724-2.546-.172-6.21.214-8.17 3.576-2.145 3.15-3.932 13.623 1.246 18.388 2.173 1.989 6.008 2.619 10.057 2.619 2.117 0 4.25-.185 6.266-.429v.015c3.848 5.838 16.565 11.29 28.282 11.29 1.975 0 3.92-.157 5.78-.486 2.932-.587 5.764-1.531 8.442-2.72.044.731.1 1.474.128 2.233.029.643.057 1.302.073 1.945 0 .101.015.201.015.314a84.157 84.157 0 0 0 3.234-1.016 73.868 73.868 0 0 0-.302-5.066c4.664-2.62 8.728-6.095 11.733-10.333 10.158-16.757 9.298-33.442 4.293-43.686a555.893 555.893 0 0 1 34.318 2.318c.715.458 1.289.96 1.716 1.531.329-1.246.63-2.491.887-3.765a11.411 11.411 0 0 0-1.044-.702ZM58.161 39.22c1.989-4.492 4.55-9.43 8.5-11.92 3.634-2.302 9.025-4.809 18.54-3.535 8.74 1.1 20.128 5.568 24.678 20.533.229.772.988 1.274 1.775 1.158 7.197-.96 11.945-.571 14.966 1.245 2.86 1.688 3.377 4.207 3.418 5.766l-19.228-1.145c-3.261-2.118-19.713-11.076-32.618-12.949-8.656-1.157-14.175-.659-20.071.932-.004-.029.012-.073.04-.085Zm-7.08 25.954c.742-1.358 1.486-2.691 2.172-4.078 2.362-4.765 3.933-9.614 4.68-14.439.1.23.2.414.385.602.643.631 1.675.631 2.318 0a.79.79 0 0 1 .658-.244.861.861 0 0 1 .615.345 1.6 1.6 0 0 0 1.374.743c.313 0 .614-.084.903-.257.743-.502.96-1.518.486-2.274a4.217 4.217 0 0 0-3.048-1.845 4.08 4.08 0 0 0-3.306 1.202c-.1.072-.116.157-.185.245.116-.86.2-1.704.245-2.532 5.723-1.587 10.973-2.133 19.34-1.016 1.973.285 4.033.743 6.094 1.33-.085.844-.173 1.687-.173 2.59.013 3.492 1.245 7.184 3.748 11.334.414.703.86 1.387 1.301 2.061.442.671.9 1.358 1.358 2.033.245.373.502.743.743 1.1.245.374.5.744.731 1.102.458.73.916 1.458 1.346 2.202-2.246 3.005-6.266 5.066-9.427 5.696.028-.016.043-.044.072-.056.43-.443.871-.86 1.317-1.274.63-.57.702-1.53.185-2.218a1.65 1.65 0 0 0-2.19-.373C79.977 69 76.63 69.673 71.939 69.372c-3.992-.286-7.667-2.174-9.856-5.079-.117-.144-.201-.229-.314-.285v-.028c-.703-.76-1.33-1.616-1.916-2.475 2.603-1.747 4.49-4.58 5.08-7.67.116-.57-.116-1.116-.502-1.474-.414-1.157-1.188-2.073-2.173-2.531-1.486-.731-3.305-.273-4.177 1.029-.53.743-.285 1.787.458 2.318.285.172.586.244.9.273 0 .184-.028.385 0 .586a3.674 3.674 0 0 0 1 2.19c-.83 1.317-1.988 2.43-3.374 3.133-.129.044-.217.157-.301.245-.029 0-.072 0-.085.016a1.667 1.667 0 0 0-.558 2.261c.357.571.743 1.145 1.145 1.688v.028c-.13.172-.258.33-.37.414A6.33 6.33 0 0 1 52.56 65.8c-.57 0-1.144-.085-1.687-.213.05-.138.12-.267.207-.411Zm1.514 3.908c2.446-.028 4.836-1.029 6.595-2.72.056-.072.085-.112.157-.172.016.044.056.044.1.057v.028c.044.044.072.085.129.129 2.76 3.575 7.298 5.894 12.118 6.223 1.358.085 3.004.157 4.735-.028-1.687 1.06-3.675 1.832-6.31 2.133-5.808.658-8.254-1.748-9.9-4.207a1.586 1.586 0 0 0-1.117-.73c-.084-.016-.185-.016-.244-.016-.402 0-.772.128-1.06.401-1.775 1.487-5.106 1.173-6.395.23-.53-.387-.96-.96-1.317-1.648.822.233 1.637.292 2.509.32Zm45.68 5.609c-.743-.2-1.53.129-1.888.787-4.22 7.742-8.583 12.692-13.733 15.584-1.288.743-2.76 1.402-4.462 2.032-4.52 1.647-11.372 3.206-18.324 1.302-6.31-1.731-11.187-5.894-13.075-11.132-1.402-3.906-.33-8.2.831-11.117.085-.213.2-.414.314-.659.43.615.928 1.173 1.546 1.603 2.145 1.53 6.052 1.932 8.97.543 1.787 2.246 4.663 4.492 9.812 4.492.7 0 1.446-.044 2.23-.129 4.049-.458 6.924-1.932 9.242-3.636v-.028c.574.145 1.188.201 1.844.201 4.005 0 9.455-2.318 12.905-5.982.586 1.387 1 2.704 1.23 3.95.128.8.83 1.373 1.618 1.373.084 0 .172-.015.257-.015.028 0 .028-.029.044-.029h.116c.586-.144 2.731-.9 5.35-4.551 1.289-1.776 1.947-4.279 2.06-4.737.085-.63.414-3.864-1.587-5.436-.787-.615-2.204-1.157-4.635-.157a12.65 12.65 0 0 0-4.005 3.448 77.282 77.282 0 0 0-2.16-3.263 117.484 117.484 0 0 1-2.563-3.949c-2.204-3.676-3.261-6.753-3.277-9.658 0-.53.044-1.073.085-1.603 8.54 2.82 16.838 7.183 20.416 9.229-.703 1.258-1.101 3.177-1.16 5.78-.458 9.646-2.876 13.407-4.808 14.853-1.662 1.246-3.18.904-3.193.904Zm-1.53-9.1c.414-.76 1.53-2.531 3.591-3.676.8-.33 1.157-.258 1.217-.214.285.245.473 1.418.385 2.218-.156.587-.73 2.362-1.518 3.448-.787 1.1-1.474 1.831-2.044 2.333a23.76 23.76 0 0 0-1.631-4.109Zm-38.254 75.481c-6.439.703-11.246.185-13.018-1.446-3.748-3.419-2.117-12.105-.715-14.182 1.903-3.218 7.137-1.759 7.181-1.731.571.172 1.189.016 1.603-.402.43-.414.615-1.028.458-1.602l-.286-1.073c-.501-1.817-1.185-4.307-1.144-6.195.028-1.189.643-2.463 1.402-2.962.244-.172.642-.329 1.257-.172-.028.285-.044.63-.072.96-.072 1.301-.172 3.077.116 5.222.474 3.435 2.888 7.212 5.98 9.558-2.894 4.094-3.907 9.172-2.762 14.025Zm55.691-2.434c-4.736 6.64-12.447 11.462-21.172 13.193-11.516 2.061-26.61-3.447-30.63-9.256-2.246-5.336-1-11.462 3.205-15.641.229-.229.473-.442.699-.63.116-.1.229-.185.345-.273.715-.558 1.414-.888 2.089-1.029.144-.028.285-.056.413-.072h.029s.012 0 .012-.016c.016 0 .029 0 .029.016h.015c.141-.016.273-.044.414-.044h.057c.14-.016.27-.028.414-.044.144-.016.285-.028.43-.028 1.558-.085 3.248 0 5.02.1a71.7 71.7 0 0 0 3.892.129c1.117 0 2.19-.044 3.177-.201 4.607-.301 8.57-1.96 10.873-4.592 1.474-1.647 2.145-3.548 2.032-5.524-.37-4.536.643-11.446 3.691-15.87 3.19-4.664 8.383-7.597 13.533-7.625.043 0 .072-.015.084-.015.044.015.072.084.116.1 8.502 6.17 13.824 26.559 1.233 47.322Zm6.266-45.23c-.358-.028-.687.1-.973.286-1.201-1.816-2.53-3.379-3.976-4.536a7.122 7.122 0 0 0-.1-.486 5.308 5.308 0 0 0-.33-.988 7.107 7.107 0 0 0-.486-1.001 9.24 9.24 0 0 0-1.486-1.932c-.116-.113-.229-.23-.345-.33a37 37 0 0 0-.386-.342 4.726 4.726 0 0 0-.414-.329 3.733 3.733 0 0 0-.558-.386.72.72 0 0 0-.129-.1 10.254 10.254 0 0 0-.386-.23h-.012a8.273 8.273 0 0 0-.787-.429c-.342-.172-.7-.33-1.073-.458a1.568 1.568 0 0 0-.571-.085h-.056a48.88 48.88 0 0 0-7.125-4.492c.658-.228 1.358-.53 2.06-1.06.731-.53 1.358-1.189 1.945-1.945l4.606.415c1.06.1 2.105.185 3.09.285.442.028.9.072 1.329.113.731.072 1.43.128 2.073.185.345.028.671.056.988.085.514.043.988.084 1.389.116.201.028.37.044.53.044.157.015.314.028.443.044.827.072 1.615.329 2.333.787l.329.229c12.102 7.842 21.388 13.98 27.811 18.4a547.287 547.287 0 0 0-29.733-1.86Z" fill="#2C2C2D"/><path d="M90.785 62.073c-.229-.358-.473-.73-.73-1.1-.458-.672-.916-1.36-1.374-2.034a48.77 48.77 0 0 1-1.302-2.06c-2.502-4.15-3.735-7.843-3.747-11.334 0-.9.084-1.747.172-2.59-2.06-.587-4.12-1.045-6.093-1.33-8.37-1.117-13.62-.572-19.34 1.016a31.094 31.094 0 0 1-.245 2.531c.072-.085.084-.172.185-.245a4.076 4.076 0 0 1 3.305-1.201 4.223 4.223 0 0 1 3.049 1.844c.473.76.257 1.776-.487 2.275a1.717 1.717 0 0 1-.903.257 1.6 1.6 0 0 1-1.373-.744.872.872 0 0 0-.615-.345.78.78 0 0 0-.659.245c-.643.63-1.674.63-2.317 0-.185-.185-.286-.373-.386-.602-.743 4.821-2.318 9.674-4.679 14.438-.687 1.387-1.43 2.72-2.173 4.078a3.922 3.922 0 0 0-.214.402 7.376 7.376 0 0 0 1.688.213A6.339 6.339 0 0 0 56.88 64c.116-.085.244-.245.37-.414v-.028a26.542 26.542 0 0 1-1.145-1.688 1.667 1.667 0 0 1 .558-2.261c.013-.016.057-.016.085-.016.085-.085.172-.2.301-.245 1.386-.702 2.547-1.816 3.375-3.133a3.666 3.666 0 0 1-1-2.19c-.03-.2 0-.401 0-.587a2.044 2.044 0 0 1-.901-.272c-.743-.53-.988-1.575-.458-2.319.872-1.301 2.69-1.76 4.177-1.028.988.458 1.76 1.373 2.174 2.531.385.358.614.9.501 1.474-.586 3.09-2.474 5.926-5.08 7.67.587.86 1.217 1.716 1.916 2.475v.028c.113.056.2.144.314.285 2.189 2.905 5.864 4.793 9.857 5.079 4.691.301 8.038-.373 10.885-2.218a1.647 1.647 0 0 1 2.189.374c.514.686.442 1.646-.185 2.217-.442.414-.887.831-1.317 1.274-.028.015-.044.044-.072.056 3.16-.63 7.181-2.691 9.427-5.696a69.016 69.016 0 0 0-1.346-2.202c-.222-.349-.476-.722-.72-1.092Zm-12.849-6.44c.085 1.418-.658 3.09-1.759 3.85-.458.313-.96.457-1.414.441-.157.016-.314.044-.474.044-.787 0-1.574-.373-2.117-1.06-.57-.715-.686-1.546-.73-2.117 0-.157.028-.314.028-.458-.63.414-1.446.373-2.017-.157-.658-.615-.67-1.66-.072-2.318.659-.687 1.631-1.732 3.077-2.005 1.129-.213 2.361.085 3.39.86.216.157.373.342.542.542.186.113.314.273.446.415.37.442.658.86.872 1.217 0 .015 0 .044.028.056.044.085.056.173.084.273.044.129.088.229.117.342v.075Zm1.619-4.48c-.201.073-.414.117-.615.117a1.662 1.662 0 0 1-1.53-1.029c-.157-.314-1.189-1.201-2.133-1.402-1.289-.257-2.16-.213-2.618.172-.7.571-1.732.458-2.302-.244-.603-.703-.486-1.732.213-2.318 1.289-1.06 3.048-1.318 5.366-.832 2.016.386 4.02 2.118 4.534 3.391a1.67 1.67 0 0 1-.915 2.146ZM101.552 61.697c-.066-.044-.417-.11-1.227.22-2.06 1.139-3.177 2.914-3.594 3.683a24.19 24.19 0 0 1 1.644 4.096c.57-.505 1.248-1.226 2.038-2.321.787-1.095 1.358-2.87 1.512-3.463.085-.79-.088-1.973-.373-2.215ZM55.263 117.487c-.286-2.149-.176-3.921-.11-5.217.022-.329.044-.68.066-.963-.615-.153-1.007 0-1.249.176-.768.505-1.38 1.775-1.401 2.958-.044 1.885.633 4.382 1.138 6.201l.285 1.073a1.625 1.625 0 0 1-.46 1.6 1.592 1.592 0 0 1-1.6.395c-.044-.022-5.278-1.49-7.185 1.732-1.402 2.083-3.023 10.759.725 14.178 1.775 1.644 6.573 2.149 13.014 1.446-1.138-4.843-.131-9.928 2.76-14.025-3.092-2.343-5.504-6.113-5.983-9.554Z" fill="#F9CA86"/><path d="M155.559 99.06a558.621 558.621 0 0 0-34.319-2.318c5.009 10.245 5.865 26.929-4.293 43.686-3.004 4.235-7.066 7.713-11.732 10.333.157 1.646.257 3.362.301 5.066 25.249-8.501 44.865-29.276 51.758-55.233-.429-.577-1-1.08-1.715-1.534ZM78.18 38.38c12.906 1.862 29.358 10.824 32.622 12.951l19.234 1.139c-.044-1.556-.571-4.075-3.418-5.763-3.023-1.819-7.778-2.214-14.966-1.248a1.633 1.633 0 0 1-1.775-1.16c-4.556-14.966-15.95-19.436-24.69-20.534-9.509-1.27-14.897 1.226-18.535 3.529-3.942 2.497-6.507 7.428-8.502 11.92a.167.167 0 0 0-.044.087c5.9-1.577 11.419-2.083 20.075-.922ZM122.369 76.857l-.329-.22a5.066 5.066 0 0 0-2.346-.79c-1.687-.132-5.607-.483-9.838-.876l-4.601-.417c-.593.766-1.226 1.424-1.95 1.951-.7.527-1.402.832-2.061 1.051a49.858 49.858 0 0 1 7.119 4.492h.066c.198 0 .373.022.571.088 3.788 1.38 6.112 4.448 6.485 7.01 1.446 1.161 2.782 2.717 3.986 4.537.286-.176.615-.308.963-.286 9.816.351 19.607.963 29.73 1.863-6.413-4.423-15.702-10.558-27.795-18.403Z" fill="#F47920"/><path d="M82.63 124.847c-.985.154-2.06.198-3.177.198-1.27 0-2.584-.066-3.902-.132-2.28-.132-4.425-.241-6.331.022-.022 0-.022-.022-.044-.022-.022.022-.022.022-.044.022-1.117.088-2.302.765-3.55 1.995-4.206 4.185-5.454 10.298-3.2 15.646 4.012 5.807 19.106 11.309 30.628 9.248 8.718-1.732 16.43-6.553 21.166-13.191 12.597-20.753 7.272-41.151-1.226-47.309-.044-.022-.066-.088-.11-.11-.022 0-.044.022-.088.022-5.15.022-10.34 2.958-13.539 7.626-3.045 4.426-4.051 11.33-3.681 15.866.11 1.973-.571 3.877-2.039 5.521-2.299 2.628-6.263 4.294-10.863 4.598ZM26.001 119.533c.257-.832.53-1.647.8-2.447-1.358-1.747-3.39-2.977-5.206-3.021a1.65 1.65 0 0 1-1.603-1.659c.028-.929.831-1.603 1.687-1.631 2.218.072 4.535 1.145 6.382 2.848 3.146-8.457 7.01-15.926 11.13-23.109-2.96 2.202-5.723 4.207-7.953 5.737-6.507 4.452-14.347 11.305-17.854 15.625a15.445 15.445 0 0 0-1.1 1.531c-.173.257-.33.53-.486.815a17.637 17.637 0 0 0-.86 1.732c-.116.301-.244.602-.345.9a21.003 21.003 0 0 0-.586 1.904 80.012 80.012 0 0 0 12.086 16.44c.145-.831.302-1.647.474-2.447.157-.8.314-1.587.502-2.374a69.88 69.88 0 0 1 .542-2.334c.129-.571.273-1.145.43-1.716.141-.615.314-1.217.474-1.816.228-.844.473-1.675.715-2.491.241-.84.498-1.672.771-2.487Z" fill="#F47920"/><path d="M102.196 154.58c-.028-.759-.085-1.502-.128-2.233-2.675 1.189-5.507 2.133-8.443 2.719-1.86.33-3.804.487-5.78.487-11.716 0-24.433-5.452-28.281-11.29v-.015c-2.017.244-4.15.429-6.266.429-4.049 0-7.881-.63-10.058-2.619-5.177-4.765-3.39-15.239-1.245-18.388 1.96-3.363 5.623-3.748 8.17-3.576-.458-1.803-.916-3.877-.872-5.724.044-1.905.928-4.379 2.86-5.653 1.358-.9 3.005-1.001 4.62-.373v.028c.401.085.771.257 1.028.543.816.859.731 1.976.643 3.547-.072 1.23-.185 2.761.085 4.564.373 2.648 2.361 5.697 4.836 7.485 1.731-1.688 3.534-2.648 5.35-2.82.013 0 .044-.028.044-.028H68.872c2.189-.302 4.55-.173 6.852-.044 2.362.128 4.607.244 6.552-.044 2.345-.157 4.406-.672 6.052-1.503-.53-1.474-1.76-5.138-1.972-8.228-.23-8.256 1.659-15.395 5.478-20.718 2.948-4.15 7.226-7.127 11.761-8.4a45.062 45.062 0 0 0-5.78-3.178c-4.105 6.882-8.44 11.506-13.548 14.379-1.458.831-3.089 1.546-4.964 2.233-3.334 1.23-7.813 2.39-12.733 2.39-2.434 0-4.993-.285-7.555-.987-6.222-1.716-11.274-5.524-14.034-10.43-5.535 9.244-10.757 18.773-14.733 30.063-.029.084-.044.157-.085.244a120.686 120.686 0 0 0-4.39 16.055c-.173.771-.33 1.559-.474 2.362a92.596 92.596 0 0 0-.37 2.173c14.335 13.595 33.72 21.952 55.048 21.952a80.13 80.13 0 0 0 22.304-3.15c0-.112-.016-.213-.016-.313-.012-.637-.041-1.296-.069-1.939Z" fill="#F47920"/><circle cx="80" cy="80" r="78" stroke="#2C2C2D" stroke-width="4"/></svg>