<svg clip-rule="evenodd" fill-rule="evenodd" stroke-linejoin="round" stroke-miterlimit="2" viewBox="0 0 32 32" xmlns="http://www.w3.org/2000/svg"><path d="m7 5h-3c-.796 0-1.559.316-2.121.879-.563.562-.879 1.325-.879 2.121v16c0 .796.316 1.559.879 2.121.562.563 1.325.879 2.121.879h24c.796 0 1.559-.316 2.121-.879.563-.562.879-1.325.879-2.121v-16c0-.796-.316-1.559-.879-2.121-.562-.563-1.325-.879-2.121-.879h-3v-1c0-1.657-1.343-3-3-3h-12c-1.657 0-3 1.343-3 3zm-4 7.437v11.563c0 .265.105.52.293.707.187.188.442.293.707.293h24c.265 0 .52-.105.707-.293.188-.187.293-.442.293-.707v-11.562s-9.857 4.333-9.995 4.335h-.005v1.239c0 .553-.448 1-1 1h-4c-.552 0-1-.447-1-1v-1.243c-.136 0-10-4.332-10-4.332zm14 1.563v3.012h-2v-3.012zm12-3.75v-2.25c0-.265-.105-.52-.293-.707-.187-.188-.442-.293-.707-.293h-24c-.265 0-.52.105-.707.293-.188.187-.293.442-.293.707v2.25l10 4.426v-1.676c0-.552.448-1 1-1h4c.552 0 1 .448 1 1v1.679zm-6-5.25v-1c0-.552-.448-1-1-1h-12c-.552 0-1 .448-1 1v1z"/></svg>