<?xml version="1.0" standalone="no"?>
<!DOCTYPE svg PUBLIC "-//W3C//DTD SVG 20010904//EN"
 "http://www.w3.org/TR/2001/REC-SVG-20010904/DTD/svg10.dtd">
<svg version="1.0" xmlns="http://www.w3.org/2000/svg"
 width="1152.000000pt" height="1152.000000pt" viewBox="0 0 1152.000000 1152.000000"
 preserveAspectRatio="xMidYMid meet">
<metadata>
Created by potrace 1.14, written by Peter Selinger 2001-2017
</metadata>
<g transform="translate(0.000000,1152.000000) scale(0.100000,-0.100000)"
fill="#000000" stroke="none">
<path d="M5657 8834 c-1 -1 -16 -5 -32 -8 -16 -3 -33 -12 -37 -20 -5 -9 -15
-13 -25 -9 -11 5 -14 3 -8 -6 6 -10 3 -11 -15 -1 -12 7 -20 7 -16 2 3 -6 0
-13 -6 -15 -10 -4 -10 -6 -1 -6 9 -1 8 -7 -4 -20 -9 -11 -23 -17 -32 -13 -13
5 -13 3 2 -12 20 -20 22 -27 6 -23 -11 2 -39 -65 -39 -95 0 -9 -5 -18 -11 -20
-6 -2 -12 -17 -13 -34 -2 -17 -6 -36 -9 -41 -4 -6 -4 -18 -1 -26 3 -10 -2 -18
-16 -22 -17 -5 -19 -10 -9 -21 9 -11 9 -14 -1 -14 -7 0 -10 -7 -6 -15 3 -8 1
-15 -4 -15 -5 0 -7 -7 -4 -15 4 -10 0 -15 -12 -15 -18 -1 -18 -1 -1 -11 16 -9
16 -12 2 -26 -9 -9 -14 -22 -11 -29 3 -9 -1 -14 -12 -14 -13 0 -14 -2 -3 -9 9
-6 10 -11 2 -15 -6 -4 -11 -16 -11 -27 0 -11 -4 -18 -9 -15 -5 3 -7 -8 -6 -24
1 -17 -1 -30 -6 -30 -5 0 -8 -5 -7 -12 5 -20 -48 -33 -74 -19 -53 27 -73 41
-83 53 -5 7 -17 14 -25 16 -8 2 -16 8 -18 13 -2 5 -10 9 -18 9 -8 0 -14 5 -14
11 0 5 -4 7 -10 4 -5 -3 -10 -2 -10 4 0 5 -9 8 -20 6 -11 -2 -20 0 -20 6 0 5
-8 9 -18 9 -10 0 -28 7 -40 16 -17 12 -22 12 -22 2 0 -11 -2 -11 -9 0 -5 9
-36 12 -109 11 -90 -1 -102 -3 -107 -20 -5 -16 -10 -17 -27 -8 -11 6 -18 7
-14 1 3 -5 -6 -10 -19 -11 -48 -3 -55 -4 -55 -13 0 -5 -8 -11 -17 -15 -22 -8
-122 -113 -108 -113 4 0 -1 -7 -10 -17 -10 -9 -15 -26 -12 -40 2 -13 1 -25 -3
-28 -3 -2 -6 -20 -5 -40 2 -26 -1 -33 -10 -25 -9 7 -10 -1 -5 -34 4 -25 2 -52
-3 -62 -7 -12 -6 -15 2 -10 6 4 11 2 11 -4 0 -6 4 -8 10 -5 6 3 7 -1 4 -9 -3
-9 -2 -16 4 -16 6 0 8 -9 5 -20 -4 -14 0 -20 11 -20 10 0 14 -4 11 -10 -3 -5
-1 -10 6 -10 7 0 9 -10 7 -25 -3 -13 -2 -23 1 -21 3 3 15 -3 26 -11 16 -13 17
-15 3 -10 -10 4 -18 2 -18 -3 0 -6 9 -10 19 -10 11 0 23 -5 27 -12 4 -6 3 -8
-3 -5 -5 3 -10 0 -10 -7 0 -8 7 -12 15 -8 10 3 13 1 8 -6 -5 -8 -1 -10 10 -5
12 4 15 3 10 -5 -4 -7 -2 -12 4 -12 6 0 9 -4 6 -9 -3 -5 1 -12 10 -15 10 -4
13 -2 8 7 -5 8 -2 7 9 -2 9 -7 17 -22 17 -33 0 -17 3 -18 15 -8 8 7 16 9 17 4
0 -5 2 -13 3 -19 2 -5 3 -14 4 -19 0 -5 9 -2 18 5 11 10 14 10 9 2 -4 -8 -1
-13 9 -13 8 0 18 -6 21 -14 3 -8 14 -12 27 -9 22 5 22 5 2 -10 -20 -16 -20
-16 3 -10 13 3 22 1 22 -6 0 -6 7 -11 16 -11 9 0 23 -8 31 -17 8 -10 12 -12 8
-5 -3 6 -1 12 4 12 6 0 11 -5 11 -11 0 -5 6 -7 13 -3 9 6 9 5 0 -7 -10 -13 -8
-15 18 -13 21 1 29 -2 25 -11 -3 -9 2 -11 15 -8 11 3 19 0 19 -6 0 -8 6 -9 18
-3 11 6 28 2 52 -10 19 -11 27 -17 18 -14 -15 4 -14 0 4 -30 19 -32 19 -34 2
-27 -16 5 -17 4 -8 -8 9 -11 9 -17 -2 -27 -8 -7 -14 -10 -14 -5 0 4 -7 -2 -15
-13 -8 -10 -15 -14 -15 -7 0 6 -9 9 -20 6 -10 -3 -18 -8 -17 -12 2 -7 -7 -11
-29 -11 -8 0 -13 4 -10 8 3 5 -23 4 -57 -1 -34 -4 -79 -8 -99 -8 -21 0 -38 -5
-38 -10 0 -6 -4 -8 -9 -4 -5 3 -12 1 -16 -5 -3 -5 -15 -10 -26 -10 -10 0 -19
-5 -19 -11 0 -5 5 -7 12 -3 7 4 8 3 4 -5 -4 -6 -15 -10 -23 -9 -9 2 -17 -5
-19 -16 -1 -10 -8 -22 -14 -26 -9 -5 -9 -10 -1 -14 6 -4 7 -15 1 -30 -6 -17
-4 -28 8 -41 11 -11 12 -15 3 -10 -9 5 -12 4 -7 -3 4 -7 16 -12 27 -12 16 0
19 -7 19 -55 0 -40 4 -57 15 -61 8 -4 15 -10 15 -16 0 -5 -6 -6 -12 -2 -9 5
-9 2 1 -9 16 -20 32 -22 28 -4 -2 6 1 2 7 -10 9 -20 31 -29 59 -24 5 1 6 -3 2
-9 -3 -6 -12 -7 -18 -4 -7 4 -8 3 -4 -2 5 -5 18 -9 30 -10 76 -3 86 -17 96
-132 1 -8 6 -10 14 -6 9 6 9 4 -1 -8 -8 -10 -9 -19 -3 -22 5 -3 8 -14 7 -24
-2 -9 3 -26 10 -37 16 -22 19 -81 5 -90 -6 -3 -9 -14 -8 -25 1 -10 5 -16 9
-14 4 3 8 0 8 -5 0 -6 5 -11 11 -11 13 0 33 -21 36 -37 2 -6 -4 -27 -12 -46
-8 -19 -11 -37 -8 -41 4 -3 1 -6 -6 -6 -7 0 -9 -4 -6 -10 3 -5 1 -10 -5 -10
-6 0 -8 -4 -5 -10 3 -5 1 -18 -5 -29 -5 -11 -12 -32 -14 -48 -7 -44 -18 -73
-28 -73 -5 0 -6 -5 -3 -10 4 -6 3 -9 -2 -8 -19 5 -54 -15 -49 -28 3 -7 2 -13
-2 -13 -21 3 -32 -2 -26 -13 5 -8 2 -9 -9 -5 -10 4 -24 -1 -34 -11 -14 -14
-34 -17 -91 -17 l-73 1 4 -71 c2 -38 8 -70 13 -70 5 0 18 -6 29 -14 15 -9 15
-11 3 -7 -10 3 -20 0 -24 -7 -4 -7 -4 -9 1 -5 4 4 14 0 21 -10 7 -9 17 -18 23
-18 22 -3 23 -4 11 -19 -7 -8 -10 -24 -7 -34 3 -12 -1 -22 -10 -25 -8 -4 -13
-13 -10 -20 3 -8 -1 -17 -8 -20 -9 -3 -12 -12 -9 -21 4 -9 13 -14 20 -11 7 3
16 0 20 -6 4 -7 9 -6 14 2 5 8 9 7 13 -4 4 -9 3 -16 -2 -16 -9 0 -8 -31 3 -48
4 -7 2 -12 -4 -12 -6 0 -8 -5 -4 -12 10 -16 13 -48 4 -48 -12 0 -7 -29 6 -34
7 -3 10 -14 7 -26 -4 -13 0 -26 8 -31 12 -7 12 -9 0 -9 -11 0 -11 -3 -1 -15
10 -13 9 -15 -11 -15 -13 0 -19 -4 -14 -8 6 -4 11 -13 13 -21 3 -12 1 -12 -14
0 -15 12 -17 12 -9 0 6 -11 4 -13 -9 -8 -10 4 -15 3 -11 -3 3 -6 1 -10 -5 -10
-6 0 -9 -4 -6 -9 3 -4 -4 -8 -17 -7 -13 1 -21 -4 -19 -12 1 -8 -7 -16 -18 -19
-17 -5 -18 -8 -8 -21 7 -9 9 -14 3 -11 -11 6 -56 -37 -47 -45 3 -3 0 -6 -7 -6
-8 0 -11 -7 -7 -15 3 -8 1 -15 -4 -15 -5 0 -6 -7 -3 -17 5 -12 3 -14 -7 -8
-10 6 -12 3 -8 -13 4 -12 3 -20 -1 -18 -12 8 -30 -9 -34 -32 -2 -12 -7 -25
-12 -29 -4 -5 -5 -3 -1 4 3 6 2 14 -4 18 -6 3 -10 -3 -10 -15 0 -13 -5 -20
-12 -17 -7 2 -26 -2 -41 -10 -15 -8 -31 -11 -36 -8 -5 2 -12 -2 -15 -11 -5
-12 -10 -14 -20 -5 -14 11 -26 5 -26 -13 0 -6 5 -4 10 4 7 10 10 11 10 2 0
-13 -6 -16 -52 -26 -21 -5 -26 -11 -21 -24 5 -14 3 -15 -8 -4 -17 16 -29 15
-29 -3 0 -9 -6 -12 -15 -9 -8 4 -15 1 -15 -4 0 -6 -10 -12 -22 -14 -13 -2 -22
-9 -20 -17 3 -12 0 -12 -12 -1 -11 8 -16 9 -16 1 0 -6 -7 -11 -15 -11 -7 0
-19 -8 -24 -17 -8 -14 -11 -15 -11 -3 0 12 -3 11 -11 -2 -5 -10 -17 -18 -25
-18 -8 0 -13 -4 -10 -9 4 -5 -4 -7 -16 -3 -16 4 -20 2 -16 -9 4 -10 -1 -15
-12 -15 -12 0 -16 5 -12 15 5 14 4 14 -10 1 -9 -8 -14 -18 -11 -22 4 -7 -30
-13 -51 -9 -5 1 -3 -5 4 -14 11 -13 10 -15 -2 -10 -9 4 -22 0 -29 -7 -13 -12
-28 -17 -66 -20 -7 -1 -10 -5 -7 -10 10 -15 -7 -30 -21 -18 -9 8 -14 6 -19 -5
-3 -9 -10 -13 -16 -10 -5 3 -10 0 -10 -7 0 -9 -3 -9 -10 2 -8 13 -10 12 -10
-3 0 -10 -5 -15 -10 -12 -6 3 -13 -1 -16 -10 -6 -13 -8 -14 -15 -3 -7 10 -9 9
-9 -3 0 -10 -7 -16 -17 -15 -11 0 -17 -5 -15 -13 2 -11 0 -12 -11 -2 -12 9
-16 8 -21 -4 -4 -11 -13 -14 -26 -10 -12 4 -20 2 -20 -5 0 -6 5 -8 10 -5 16
10 11 -1 -7 -16 -11 -10 -14 -10 -9 -1 11 18 -9 15 -25 -5 -12 -14 -12 -16 0
-9 9 6 12 5 9 -5 -3 -8 13 -26 41 -45 35 -23 893 -540 971 -585 8 -4 52 -31
97 -59 46 -27 87 -50 93 -50 5 0 10 -3 10 -7 0 -5 10 -13 23 -19 12 -6 293
-173 625 -372 l603 -363 182 94 c100 52 277 143 392 202 255 130 525 269 740
380 157 81 343 176 760 390 116 59 289 148 385 198 226 116 489 251 563 289
l58 29 -23 17 c-13 10 -36 24 -52 32 -16 8 -42 27 -57 41 -16 15 -34 29 -41
33 -7 3 -30 17 -50 31 -21 14 -38 21 -38 15 0 -5 -8 -3 -18 6 -10 8 -50 30
-88 48 -38 17 -85 42 -104 54 -19 12 -41 22 -47 22 -7 0 -13 5 -13 12 0 6 -3
8 -6 5 -4 -4 -28 4 -53 17 -25 13 -76 36 -113 51 -37 15 -72 33 -79 41 -6 7
-15 12 -19 9 -4 -3 -10 2 -14 10 -3 8 -12 15 -21 15 -8 0 -15 4 -15 8 0 5 -12
14 -26 20 -14 7 -23 16 -19 21 3 5 -3 12 -14 16 -11 3 -22 12 -25 20 -3 8 -13
15 -23 15 -15 0 -16 2 -3 10 13 9 13 10 0 11 -8 1 -19 1 -23 0 -5 -1 -6 3 -2
9 3 5 1 10 -5 10 -6 0 -8 5 -5 10 3 6 -1 10 -9 10 -9 0 -15 3 -14 8 2 13 -17
51 -27 51 -5 1 -10 4 -10 9 -1 14 -62 91 -69 85 -3 -3 -6 0 -6 8 0 15 -58 56
-72 51 -5 -1 -8 3 -8 10 0 6 -3 8 -6 5 -4 -4 -19 0 -33 7 -36 20 -64 30 -76
27 -5 -2 -7 1 -3 5 4 4 0 12 -8 19 -14 10 -16 36 -17 173 0 115 4 166 13 177
7 8 9 15 6 15 -4 0 15 22 41 48 77 78 112 120 105 127 -4 4 0 12 8 18 21 16
51 73 43 81 -3 3 -2 6 4 6 6 0 14 12 18 27 3 15 15 47 26 71 11 24 23 65 27
90 10 78 6 265 -6 288 -9 17 -9 24 2 33 17 14 78 20 92 9 7 -5 22 -4 36 1 15
6 31 5 41 -1 12 -6 17 -6 15 3 -2 6 3 14 11 17 9 3 11 0 6 -9 -6 -10 -5 -11 3
-4 6 6 13 22 14 35 2 14 12 33 23 42 12 10 15 17 8 18 -8 0 -5 8 7 20 11 11
20 25 20 30 0 6 12 29 27 53 15 23 27 44 27 47 -1 3 7 13 17 23 11 9 19 14 19
11 0 -3 7 2 16 10 8 9 12 21 8 28 -6 9 -3 9 9 -1 14 -11 17 -11 18 0 1 8 1 18
0 22 -1 5 3 6 8 2 13 -7 54 55 79 120 26 67 21 108 -27 252 -23 66 -41 128
-41 137 0 9 -5 16 -11 16 -5 0 -8 4 -4 9 3 5 -2 17 -11 25 -8 9 -13 16 -10 16
9 0 -104 203 -116 208 -4 2 -8 9 -8 16 0 7 -10 18 -22 24 -13 6 -17 11 -10 11
8 1 3 11 -13 26 -14 14 -25 30 -25 35 0 6 -7 10 -15 10 -8 0 -15 4 -15 9 0 13
-107 121 -113 115 -3 -3 -8 4 -12 15 -3 12 -11 21 -16 21 -6 0 -16 6 -24 13
-7 6 -32 28 -55 47 -23 19 -51 43 -61 53 -11 9 -23 17 -29 17 -5 0 -10 7 -10
16 0 8 -4 12 -10 9 -5 -3 -10 -1 -10 5 0 6 -4 9 -9 6 -5 -4 -11 -2 -13 3 -1 5
-10 11 -18 13 -8 2 -22 12 -32 23 -9 11 -17 16 -18 12 0 -4 -10 2 -22 13 -12
11 -28 18 -35 16 -7 -3 -13 -1 -13 4 0 6 -6 10 -14 10 -24 0 -66 51 -66 81 0
19 -13 42 -44 73 -24 25 -49 46 -54 46 -6 0 -26 8 -44 18 -27 15 -121 51 -150
58 -5 1 -9 2 -10 4 -2 1 -12 3 -23 5 -58 11 -122 27 -137 35 -12 7 -18 7 -18
0 0 -7 -7 -7 -21 0 -11 7 -27 9 -35 6 -8 -3 -14 -2 -14 3 0 4 -6 8 -12 8 -21
1 -81 14 -89 19 -4 2 -10 0 -14 -6 -4 -7 -13 -6 -27 1 -11 6 -64 13 -117 14
-53 2 -96 4 -96 5 0 1 -40 3 -90 6 -49 2 -123 7 -162 12 -44 5 -73 5 -73 -1 0
-5 -6 -4 -14 2 -8 7 -17 8 -20 3 -2 -4 -30 -5 -60 -2 -31 3 -60 4 -65 0 -13
-7 -267 -5 -311 4 -37 6 -208 15 -213 10z"/>
<path d="M4525 5281 c-6 -11 9 -23 19 -14 9 9 7 23 -3 23 -6 0 -12 -4 -16 -9z"/>
</g>
</svg>
