<svg height="60pt" preserveAspectRatio="xMidYMid meet" viewBox="0 0 60 60" width="60pt" xmlns="http://www.w3.org/2000/svg"><g transform="matrix(.1 0 0 -.1 0 60)"><path d="m232 489c-49-15-108-79-126-138-13-45-13-57 0-101 35-118 154-179 262-134 80 33 125 100 125 184 0 137-125 228-261 189zm162-62c42-33 71-102 62-150-21-111-149-173-237-114-94 63-107 180-27 254 54 51 142 55 202 10z"/><path d="m237 332c-52-52-56-60-42-72 14-11 22-8 58 28l43 42 42-42c40-40 43-42 59-25 16 16 14 20-37 72-30 30-57 55-60 55s-32-26-63-58z"/></g></svg>