<svg height="75" viewBox="0 0 75 75" width="75" xmlns="http://www.w3.org/2000/svg"><path d="m37.5 3c-19.035156 0-34.5 15.464844-34.5 34.5s15.464844 34.5 34.5 34.5 34.5-15.464844 34.5-34.5-15.464844-34.5-34.5-34.5zm0 3c17.414062 0 31.5 14.085938 31.5 31.5s-14.085938 31.5-31.5 31.5-31.5-14.085938-31.5-31.5 14.085938-31.5 31.5-31.5zm-14.996094 21-6.054687.003906s-.34375-.019531-.765625.035156c-.417969.054688-1.035156.078126-1.667969.796876h-.003906l-.003907.003906c-.5625.644531-.539062 1.394531-.46875 1.808594.070313.410156.226563.71875.226563.71875v.003906c.058594.144531 4.453125 10.910156 9.992187 16.695312 3.910157 4.085938 8.089844 5.433594 11.8125 5.433594h1.929688c.636719 0 1.203125-.027344 1.832031-.355469.628907-.324219 1.167969-1.222656 1.167969-1.921875 0-.75.019531-1.480468.113281-1.886718.089844-.378907.054688-.285157.09375-.285157.035157.007813.097657.023438.222657.078125.269531.121094.683593.390625 1.140624.746094.914063.710938 2 1.742188 3.21875 2.539062 1.738282 1.15625 3.632813 1.085938 3.632813 1.085938h6.234375l.066406-.007812s.957032-.019532 1.9375-.621094c.492188-.300782 1.078125-.855469 1.273438-1.683594.195312-.828125-.054688-1.695312-.535156-2.460938-.179688-.28125-1.03125-1.519531-4.441407-4.546874-.882812-.78125-1.484375-1.332032-1.722656-1.628907-.082031-.101562-.089844-.09375-.105469-.097656.019532-.050781.214844-.46875.742188-1.152344.550781-.714843 1.382812-1.707031 2.457031-3.078125 1.371094-1.742187 2.328125-3.417968 2.933594-4.832031.300781-.707031.515625-1.347656.644531-1.929687.128906-.582032.230469-1.066407.042969-1.757813-.144531-.511719-.527344-.972656-.902344-1.214844-.378906-.242187-.730469-.332031-1.042969-.390625-.632812-.117187-1.1875-.097656-1.707031-.097656-1.085937 0-5.914063.039062-6.308594.039062-.46875 0-1.214843.195313-1.558593.390626-.859376.492187-1.125 1.164062-1.125 1.164062l-.082032.144531-.046875.160157s-1.101562 3.554687-2.230469 5.386718h-.003906c-1.328125 2.160156-2.320312 3.015625-2.757812 3.257813-.046875.027343-.019532.011719-.050782.03125-.035156-.101563-.078124-.238281-.105468-.492188-.066406-.570312-.027344-1.371093-.027344-2.148437 0-2.152344.160156-3.492188-.015625-4.765625-.089844-.632813-.320313-1.339844-.839844-1.886719-.519531-.542969-1.191406-.808594-1.863281-.964844h-.003906c-.699219-.160156-1.453125-.300781-3.261719-.316406-2.308594-.023438-3.808594.050781-5.144531.644531l-.015625.007813-.011719.007812c-.527344.246094-.941406.53125-1.308594.910156-.183594.191407-.402344.328126-.550781.929688-.078125.304688-.085937.875.257813 1.335938.339843.464843.820312.605468 1.101562.640624-.054688-.007812.222656.054688.433594.15625.210937.105469.394531.257813.441406.316407v.003906c-.019531-.023437.183594.480469.238281.941406.050781.460938.042969.832031.042969.832031l-.003906.089844.011718.09375s.089844 1.015625.042969 2.070313c-.023437.523437-.089843 1.054687-.179687 1.378906-.003906.015625-.007813.011719-.011719.027344-.375-.261719-1.242187-1.175781-2.433594-3.148438-1.105469-1.820312-2.136719-5.101562-2.136719-5.101562l-.023437-.070313-.027344-.070312s-.191406-.734375-1.042969-1.332032c-.796874-.558593-1.554687-.636718-1.554687-.636718zm-.351562 3c.085937.03125.265625.097656.300781.113281l-.035156-.105469s.046875.105469.046875.105469.003906.003907.007812.003907v.003906c-.074218-.054688-.011718 0 0 .011718.039063.140626.957032 3.296876 2.386719 5.660157 1.300781 2.152343 2.265625 3.355469 3.316406 4.078125 1.046875.71875 2.460938.644531 3.179688.273437.957031-.5 1.226562-1.316406 1.410156-2 .183594-.683593.25-1.375.28125-2.027343.058594-1.246094-.039063-2.269532-.050781-2.371094.003906-.054688.015625-.542969-.058594-1.199219-.078125-.664063-.21875-1.484375-.804688-2.3125.660157-.097656 1.023438-.246094 2.351563-.234375 1.695313.015625 1.953125.085938 2.621094.242188.363281.082031.402343.152343.367187.117187-.035156-.039063-.003906-.0625.039063.230469.082031.582031-.011719 2.078125-.011719 4.34375 0 .640625-.0625 1.539062.042969 2.484375.105469.941406.402343 2.148437 1.542969 2.855469.648437.402343 1.890624.542968 3.0625-.109376 1.167968-.652343 2.367187-1.902343 3.847656-4.304687 1.460937-2.367187 2.335937-5.480469 2.429687-5.808594 0 0 .015625-.011719.027344-.019531.023437.003906-.007813.007812.035156.007812.554688 0 5.292969-.039062 6.308594-.039062.277344 0 .402344.015625.609375.023438-.082031.324218-.195312.699218-.402344 1.1875-.488281 1.140624-1.324218 2.621093-2.535156 4.164062-1.042969 1.328125-1.855469 2.289062-2.472656 3.09375-.621094.804688-1.105469 1.441406-1.308594 2.359375-.207031.917969.183594 1.953125.714844 2.609375.527344.65625 1.183594 1.210938 2.0625 1.988281 3.296875 2.929688 3.839844 3.816407 3.890625 3.898438v.003906c.058593.085937.019531 0 .042969.042969-.1875.058594-.410157.125-.433594.128906h-6.078125s-1.117188-.035156-1.945313-.585938v-.003906h-.003906c-.878906-.574218-1.9375-1.558594-3.027344-2.402344-.542968-.425781-1.101562-.820312-1.742187-1.113281-.644531-.289062-1.460938-.496093-2.316407-.238281-1.246093.371094-1.933593 1.554688-2.15625 2.492188-.15625.675781-.132812 1.261718-.140624 1.847656-.042969.003906-.003907.003906-.054688.003906h-1.929688c-3.050781 0-6.222656-.929688-9.640624-4.503906-4.449219-4.648438-8.417969-13.628906-9.011719-14.992188zm26.167968.011719c-.027343.007812.050782.011719.113282.015625-.007813.007812 0-.003906-.011719.003906 0-.023438-.066406-.027344-.101563-.019531zm0 0" fill="#fff"/></svg>