<svg height="30" viewBox="0 0 30 30" width="30" xmlns="http://www.w3.org/2000/svg"><path d="m15 3c-6.628906 0-12 5.371094-12 12s5.371094 12 12 12 12-5.371094 12-12-5.371094-12-12-12zm6.359375 15.96875-1.867187.023438s-.402344.078124-.929688-.285157c-.699219-.480469-1.359375-1.726562-1.871094-1.566406-.519531.167969-.503906 1.289063-.503906 1.289063s.003906.199218-.117188.328124c-.128906.140626-.382812.125-.382812.125h-.835938s-1.84375.152344-3.472656-1.542968c-1.773437-1.847656-3.339844-5.496094-3.339844-5.496094s-.089843-.230469.007813-.351562c.109375-.128907.410156-.132813.410156-.132813l2-.007813s.1875.03125.324219.132813c.109375.082031.171875.234375.171875.234375s.324219.820312.753906 1.5625c.835938 1.445312 1.222657 1.761719 1.507813 1.605469.414062-.226563.289062-2.042969.289062-2.042969s.007813-.660156-.207031-.953125c-.167969-.230469-.484375-.296875-.621094-.316406-.113281-.011719.070313-.273438.308594-.394531.363281-.175782.996094-.183594 1.75-.175782.582031.003906.753906.039063.980469.097656.691406.164063.457031.808594.457031 2.355469 0 .492188-.089844 1.191407.265625 1.417969.15625.101562.53125.015625 1.464844-1.578125.445312-.757813.777344-1.644531.777344-1.644531s.074218-.15625.1875-.226563c.113281-.070312.269531-.046875.269531-.046875l2.105469-.011718s.632812-.078126.734374.210937c.109376.300781-.234374 1-1.09375 2.148437-1.414062 1.882813-1.570312 1.707032-.398437 2.796876 1.121094 1.042968 1.351563 1.546874 1.390625 1.613281.464844.769531-.515625.832031-.515625.832031zm0 0" fill="#fff"/></svg>